<svg preserveAspectRatio="none" width="100%" height="100%" overflow="visible" style="display: block;" viewBox="0 0 24 24" fill="none" xmlns="http://www.w3.org/2000/svg">
<g id="Group 86">
<g id="Vector">
<path d="M3.08982 24C2.20359 24 1.46707 23.7066 0.88024 23.1198C0.293413 22.5329 0 21.7964 0 20.9102V3.08982C0 2.20359 0.293413 1.46707 0.88024 0.88024C1.46707 0.293413 2.20359 0 3.08982 0H8.87425C9.13772 0 9.36527 0.0958084 9.55689 0.287425C9.7485 0.479042 9.84431 0.706587 9.84431 0.97006C9.84431 1.23353 9.7485 1.46108 9.55689 1.65269C9.36527 1.84431 9.13772 1.94012 8.87425 1.94012H3.08982C2.8024 1.94012 2.53892 2.05988 2.2994 2.2994C2.05988 2.53892 1.94012 2.8024 1.94012 3.08982V20.9102C1.94012 21.1976 2.05988 21.4611 2.2994 21.7006C2.53892 21.9401 2.8024 22.0599 3.08982 22.0599H20.9102C21.1976 22.0599 21.4611 21.9401 21.7006 21.7006C21.9401 21.4611 22.0599 21.1976 22.0599 20.9102V15.1257C22.0599 14.8623 22.1557 14.6347 22.3473 14.4431C22.5389 14.2515 22.7665 14.1557 23.0299 14.1557C23.2934 14.1557 23.521 14.2515 23.7126 14.4431C23.9042 14.6347 24 14.8623 24 15.1257V20.9102C24 21.7964 23.7066 22.5329 23.1198 23.1198C22.5329 23.7066 21.7964 24 20.9102 24H3.08982Z" fill="#d4d4d4"/>
<path d="M14.4072 6.2515H17.7485V9.59281C17.7485 9.85629 17.8443 10.0838 18.0359 10.2754C18.2276 10.4671 18.4551 10.5629 18.7186 10.5629C18.982 10.5629 19.2096 10.4671 19.4012 10.2754C19.5928 10.0838 19.6886 9.85629 19.6886 9.59281V6.2515H23.0299C23.2934 6.2515 23.521 6.15569 23.7126 5.96407C23.9042 5.77246 24 5.54491 24 5.28144C24 5.01796 23.9042 4.79042 23.7126 4.5988C23.521 4.40719 23.2934 4.31138 23.0299 4.31138H19.6886V0.97006C19.6886 0.706587 19.5928 0.479042 19.4012 0.287425C19.2096 0.0958084 18.982 0 18.7186 0C18.4551 0 18.2276 0.0958084 18.0359 0.287425C17.8443 0.479042 17.7485 0.706587 17.7485 0.97006V4.31138H14.4072C14.1437 4.31138 13.9162 4.40719 13.7246 4.5988C13.5329 4.79042 13.4371 5.01796 13.4371 5.28144C13.4371 5.54491 13.5329 5.77246 13.7246 5.96407C13.9162 6.15569 14.1437 6.2515 14.4072 6.2515Z" fill="#84aeff"/>
</g>
</g>
</svg>
