<svg preserveAspectRatio="none" width="100%" height="100%" overflow="visible" style="display: block;" viewBox="0 0 24 24" fill="none" xmlns="http://www.w3.org/2000/svg">
<g id="Group 93">
<g id="Vector">
<path d="M3.08982 24C2.20359 24 1.46707 23.7066 0.88024 23.1198C0.293413 22.5329 0 21.7964 0 20.9102V3.08982C0 2.20359 0.293413 1.46707 0.88024 0.88024C1.46707 0.293413 2.20359 0 3.08982 0H20.9102C21.7964 0 22.5329 0.293413 23.1198 0.88024C23.7066 1.46707 24 2.20359 24 3.08982V20.9102C24 21.7964 23.7066 22.5329 23.1198 23.1198C22.5329 23.7066 21.7964 24 20.9102 24H3.08982ZM3.08982 22.0599H20.9102C21.1976 22.0599 21.4611 21.9401 21.7006 21.7006C21.9401 21.4611 22.0599 21.1976 22.0599 20.9102V3.08982C22.0599 2.8024 21.9401 2.53892 21.7006 2.2994C21.4611 2.05988 21.1976 1.94012 20.9102 1.94012H3.08982C2.8024 1.94012 2.53892 2.05988 2.2994 2.2994C2.05988 2.53892 1.94012 2.8024 1.94012 3.08982V20.9102C1.94012 21.1976 2.05988 21.4611 2.2994 21.7006C2.53892 21.9401 2.8024 22.0599 3.08982 22.0599Z" fill="#373737"/>
<path d="M5.17371 12.9701C5.17371 12.7066 5.26951 12.479 5.46113 12.2874C5.65275 12.0958 5.88029 12 6.14377 12C6.40724 12 6.63478 12.0958 6.8264 12.2874C7.01802 12.479 7.11383 12.7066 7.11383 12.9701V17.8563C7.11383 18.1198 7.01802 18.3473 6.8264 18.5389C6.63478 18.7305 6.40724 18.8263 6.14377 18.8263C5.88029 18.8263 5.65275 18.7305 5.46113 18.5389C5.26951 18.3473 5.17371 18.1198 5.17371 17.8563V12.9701Z" fill="#0A5DFF"/>
<path d="M16.8863 5.64071C16.8863 5.37724 16.9821 5.1497 17.1737 4.95808C17.3653 4.76646 17.5929 4.67065 17.8563 4.67065C18.1198 4.67065 18.3474 4.76646 18.539 4.95808C18.7306 5.1497 18.8264 5.37724 18.8264 5.64071V17.8563C18.8264 18.1198 18.7306 18.3473 18.539 18.5389C18.3474 18.7305 18.1198 18.8263 17.8563 18.8263C17.5929 18.8263 17.3653 18.7305 17.1737 18.5389C16.9821 18.3473 16.8863 18.1198 16.8863 17.8563V5.64071Z" fill="#0A5DFF"/>
<path d="M11.0659 9.91616C11.0659 9.65269 11.1617 9.42515 11.3533 9.23353C11.545 9.04191 11.7725 8.9461 12.036 8.9461C12.2995 8.9461 12.527 9.04191 12.7186 9.23353C12.9102 9.42515 13.006 9.65269 13.006 9.91616V17.8563C13.006 18.1198 12.9102 18.3473 12.7186 18.5389C12.527 18.7305 12.2995 18.8263 12.036 18.8263C11.7725 18.8263 11.545 18.7305 11.3533 18.5389C11.1617 18.3473 11.0659 18.1198 11.0659 17.8563V9.91616Z" fill="#0A5DFF"/>
</g>
</g>
</svg>
