<svg width="24" height="24" viewBox="0 0 24 24" fill="none" xmlns="http://www.w3.org/2000/svg"><path d="M17.6159 16.0291C18.4876 16.0291 19.1942 15.3225 19.1942 14.4508C19.1942 13.5792 18.4876 12.8726 17.6159 12.8726C16.7443 12.8726 16.0377 13.5792 16.0377 14.4508C16.0377 15.3225 16.7443 16.0291 17.6159 16.0291Z" fill="#84aeff"/><path d="M14.1087 7.61165H21.1232C21.6068 7.61165 22 7.21846 22 6.73484C22 6.25123 21.6068 5.85803 21.1232 5.85803H14.1087C13.6251 5.85803 13.2319 6.25123 13.2319 6.73484C13.2319 7.21846 13.6251 7.61165 14.1087 7.61165Z" fill="#d4d4d4"/><path d="M21.1232 16.3798H14.1087C13.6251 16.3798 13.2319 16.773 13.2319 17.2566C13.2319 17.7402 13.6251 18.1334 14.1087 18.1334H21.1232C21.6068 18.1334 22 17.7402 22 17.2566C22 16.773 21.6068 16.3798 21.1232 16.3798Z" fill="#84aeff"/><path d="M7.63194 17.2566L10.5213 14.3669C10.684 14.1984 10.7713 13.9768 10.7672 13.7425C10.7631 13.5082 10.6679 13.2897 10.4997 13.1274C10.1583 12.7972 9.62326 12.7969 9.27939 13.1294L6.39276 16.0168L3.50339 13.1274C3.33488 12.9644 3.1191 12.877 2.87866 12.8811C2.64473 12.8852 2.42621 12.9801 2.26353 13.1486C1.93335 13.4904 1.93335 14.0254 2.26558 14.369L5.15289 17.2566L2.26763 20.1415C2.09912 20.3042 2.00425 20.5227 2.00014 20.7567C1.99603 20.9909 2.08337 21.2129 2.2464 21.3811C2.40875 21.5499 2.62726 21.6448 2.86154 21.6489C2.86702 21.6492 2.87215 21.6492 2.87729 21.6492C3.10574 21.6492 3.32186 21.5616 3.50545 21.3835L6.39276 18.4961L9.28213 21.3855C9.45064 21.5482 9.67635 21.6352 9.90651 21.6318C10.1408 21.6277 10.3593 21.5328 10.522 21.3643C10.8515 21.0228 10.8522 20.4878 10.5227 20.1463L7.63194 17.2566Z" fill="#d4d4d4"/><path d="M17.6159 21.6407C18.4876 21.6407 19.1942 20.934 19.1942 20.0624C19.1942 19.1907 18.4876 18.4841 17.6159 18.4841C16.7443 18.4841 16.0377 19.1907 16.0377 20.0624C16.0377 20.934 16.7443 21.6407 17.6159 21.6407Z" fill="#84aeff"/><path d="M9.9 5.85808H7.2682V3.22764C7.2682 2.74403 6.875 2.35083 6.39138 2.35083C5.90777 2.35083 5.51457 2.74403 5.51457 3.22764V5.85808H2.88551C2.40189 5.85808 2.0087 6.25127 2.0087 6.73489C2.0087 7.2185 2.40189 7.6117 2.88551 7.6117H5.51457V10.2421C5.51457 10.7257 5.90777 11.1189 6.39138 11.1189C6.875 11.1189 7.2682 10.7257 7.2682 10.2421V7.6117H9.9C10.3836 7.6117 10.7768 7.2185 10.7768 6.73489C10.7768 6.25127 10.3836 5.85808 9.9 5.85808Z" fill="#84aeff"/></svg>