<svg width="24" height="24" viewBox="0 0 24 24" fill="none" xmlns="http://www.w3.org/2000/svg">
<path d="M20.2874 2.09985H3.71265C2.82312 2.09985 2.09985 2.82312 2.09985 3.71265V20.2874C2.09985 21.1765 2.82312 21.9001 3.71265 21.9001H20.2874C21.1765 21.9001 21.9001 21.1765 21.9001 20.2874V3.71265C21.9001 2.82312 21.1765 2.09985 20.2874 2.09985ZM20.7462 9.46875V20.7554H3.25342V3.25342H20.7462V9.46875Z" fill="black"/>
<path d="M18.0786 8.05323H5.841C5.08567 8.05323 4.47162 7.52961 4.47162 6.88617V5.54145C4.47162 4.89801 5.08567 4.37439 5.841 4.37439H18.0786C18.8339 4.37439 19.4479 4.89801 19.4479 5.54145V6.88617C19.4479 7.52961 18.8339 8.05323 18.0786 8.05323Z" fill="#0A5DFF"/>
<path d="M7.53735 9.47559H5.51587C4.94019 9.47559 4.4718 9.92034 4.4718 10.467V11.2316C4.4718 11.7783 4.94019 12.223 5.51587 12.223H7.53735C8.11267 12.223 8.58142 11.7783 8.58142 11.2316V10.467C8.58142 9.92034 8.11267 9.47559 7.53735 9.47559Z" fill="black"/>
<path d="M12.9705 9.47559H10.9493C10.3737 9.47559 9.90491 9.92034 9.90491 10.467V11.2316C9.90491 11.7783 10.3737 12.223 10.9493 12.223H12.9705C13.5461 12.223 14.0149 11.7783 14.0149 11.2316V10.467C14.0149 9.92034 13.5461 9.47559 12.9705 9.47559Z" fill="black"/>
<path d="M18.4036 9.47559H16.3824C15.8068 9.47559 15.3384 9.92034 15.3384 10.467V11.2316C15.3384 11.7783 15.8068 12.223 16.3824 12.223H18.4036C18.9792 12.223 19.448 11.7783 19.448 11.2316V10.467C19.448 9.92034 18.9792 9.47559 18.4036 9.47559Z" fill="black"/>
<path d="M7.53735 13.1777H5.51587C4.94019 13.1777 4.4718 13.6225 4.4718 14.1691V14.9338C4.4718 15.4804 4.94019 15.9252 5.51587 15.9252H7.53735C8.11267 15.9252 8.58142 15.4804 8.58142 14.9338V14.1691C8.58142 13.6225 8.11267 13.1777 7.53735 13.1777Z" fill="black"/>
<path d="M12.9705 13.1777H10.9493C10.3737 13.1777 9.90491 13.6225 9.90491 14.1691V14.9338C9.90491 15.4804 10.3737 15.9252 10.9493 15.9252H12.9705C13.5461 15.9252 14.0149 15.4804 14.0149 14.9338V14.1691C14.0149 13.6225 13.5461 13.1777 12.9705 13.1777Z" fill="black"/>
<path d="M18.4036 13.1777H16.3824C15.8068 13.1777 15.3384 13.6225 15.3384 14.1691V14.9338C15.3384 15.4804 15.8068 15.9252 16.3824 15.9252H18.4036C18.9792 15.9252 19.448 15.4804 19.448 14.9338V14.1691C19.448 13.6225 18.9792 13.1777 18.4036 13.1777Z" fill="black"/>
<path d="M7.53735 16.8799H5.51587C4.94019 16.8799 4.4718 17.3246 4.4718 17.8713V18.6359C4.4718 19.1826 4.94019 19.6273 5.51587 19.6273H7.53735C8.11267 19.6273 8.58142 19.1826 8.58142 18.6359V17.8713C8.58142 17.3246 8.11267 16.8799 7.53735 16.8799Z" fill="black"/>
<path d="M12.9705 16.8799H10.9493C10.3737 16.8799 9.90491 17.3246 9.90491 17.8713V18.6359C9.90491 19.1826 10.3737 19.6273 10.9493 19.6273H12.9705C13.5461 19.6273 14.0149 19.1826 14.0149 18.6359V17.8713C14.0149 17.3246 13.5461 16.8799 12.9705 16.8799Z" fill="black"/>
<path d="M18.4036 16.8799H16.3824C15.8068 16.8799 15.3384 17.3246 15.3384 17.8713V18.6359C15.3384 19.1826 15.8068 19.6273 16.3824 19.6273H18.4036C18.9792 19.6273 19.448 19.1826 19.448 18.6359V17.8713C19.448 17.3246 18.9792 16.8799 18.4036 16.8799Z" fill="black"/>
</svg>
