<svg width="24" height="24" viewBox="0 0 24 24" fill="none" xmlns="http://www.w3.org/2000/svg"><path d="M17.7162 15.9225C18.5048 15.9225 19.1441 15.2832 19.1441 14.4946C19.1441 13.706 18.5048 13.0667 17.7162 13.0667C16.9275 13.0667 16.2882 13.706 16.2882 14.4946C16.2882 15.2832 16.9275 15.9225 17.7162 15.9225Z" fill="#0A5DFF"/><path d="M14.1463 7.35482H21.2861C21.6803 7.35482 22 7.03514 22 6.64085C22 6.24621 21.6803 5.92688 21.2861 5.92688H14.1463C13.7521 5.92688 13.4324 6.24621 13.4324 6.64085C13.4324 7.03514 13.7521 7.35482 14.1463 7.35482Z" fill="#373737"/><path d="M21.2861 16.6365H14.1463C13.7521 16.6365 13.4324 16.9558 13.4324 17.3504C13.4324 17.7447 13.7521 18.0644 14.1463 18.0644H21.2861C21.6803 18.0644 22 17.7447 22 17.3504C22 16.9558 21.6803 16.6365 21.2861 16.6365Z" fill="#0A5DFF"/><path d="M10.368 20.4155L7.30158 17.3504L10.3666 14.285C10.6403 14.0016 10.6326 13.5494 10.3489 13.2758C10.0724 13.0084 9.63349 13.0084 9.35703 13.2758L6.29268 16.3408L3.22762 13.2758C2.94385 13.0017 2.49204 13.0094 2.21802 13.2932C1.95063 13.57 1.95063 14.0086 2.21802 14.285L5.28308 17.3504L2.21802 20.4155C1.93425 20.6891 1.92658 21.1413 2.20059 21.4247C2.47426 21.7085 2.92642 21.7165 3.20984 21.4425L3.22762 21.4247L6.29268 18.3597L9.35773 21.4247C9.64116 21.6987 10.0933 21.6911 10.3673 21.4073C10.6344 21.1308 10.6351 20.6919 10.368 20.4155Z" fill="#373737"/><path d="M17.7162 21.6342C18.5048 21.6342 19.1441 20.9949 19.1441 20.2063C19.1441 19.4176 18.5048 18.7783 17.7162 18.7783C16.9275 18.7783 16.2882 19.4176 16.2882 20.2063C16.2882 20.9949 16.9275 21.6342 17.7162 21.6342Z" fill="#0A5DFF"/><path d="M9.8625 5.92691H7.00522V3.07103C7.00522 2.67639 6.68554 2.35706 6.29125 2.35706C5.89696 2.35706 5.57728 2.67639 5.57728 3.07103V5.92691H2.72279C2.3285 5.92691 2.00882 6.24624 2.00882 6.64088C2.00882 7.03517 2.3285 7.35485 2.72279 7.35485H5.57728V10.2107C5.57728 10.605 5.89696 10.9247 6.29125 10.9247C6.68554 10.9247 7.00522 10.605 7.00522 10.2107V7.35485H9.8625C10.2568 7.35485 10.5765 7.03517 10.5765 6.64088C10.5765 6.24624 10.2568 5.92691 9.8625 5.92691Z" fill="#0A5DFF"/></svg>