<svg preserveAspectRatio="none" width="100%" height="100%" overflow="visible" style="display: block;" viewBox="0 0 24 24" fill="none" xmlns="http://www.w3.org/2000/svg">
<g id="Group 92">
<g id="Vector">
<path d="M3.08981 24C2.21006 24 1.47521 23.7049 0.885268 23.1147C0.295089 22.5247 0 21.7899 0 20.9101V3.08981C0 2.2103 0.295089 1.47545 0.885268 0.885268C1.47521 0.29509 2.21006 0 3.08981 0H20.9101C21.7897 0 22.5245 0.29509 23.1147 0.885268C23.7049 1.47545 24 2.2103 24 3.08981V20.9101C24 21.7899 23.7049 22.5247 23.1147 23.1147C22.5245 23.7049 21.7897 24 20.9101 24H3.08981ZM3.08981 22.0598H20.9101C21.1976 22.0598 21.461 21.9401 21.7006 21.7006C21.9401 21.461 22.0598 21.1976 22.0598 20.9101V3.08981C22.0598 2.80239 21.9401 2.53892 21.7006 2.2994C21.461 2.05988 21.1976 1.94012 20.9101 1.94012H3.08981C2.80239 1.94012 2.53892 2.05988 2.2994 2.2994C2.05988 2.53892 1.94012 2.80239 1.94012 3.08981V20.9101C1.94012 21.1976 2.05988 21.461 2.2994 21.7006C2.53892 21.9401 2.80239 22.0598 3.08981 22.0598Z" fill="#373737"/>
<path d="M6.4671 19.6886V17.5329H4.31141C4.08459 17.5329 3.89621 17.455 3.74627 17.2993C3.59609 17.1437 3.521 16.958 3.521 16.7425C3.521 16.5269 3.59609 16.3413 3.74627 16.1856C3.89621 16.0299 4.08459 15.952 4.31141 15.952H6.4671V13.7964C6.4671 13.5695 6.54494 13.3811 6.70063 13.2312C6.85632 13.081 7.04195 13.0059 7.25752 13.0059C7.47308 13.0059 7.65871 13.081 7.8144 13.2312C7.97009 13.3811 8.04793 13.5695 8.04793 13.7964V15.952H10.2036C10.4304 15.952 10.6188 16.0299 10.7688 16.1856C10.9189 16.3413 10.994 16.5269 10.994 16.7425C10.994 16.958 10.9189 17.1437 10.7688 17.2993C10.6188 17.455 10.4304 17.5329 10.2036 17.5329H8.04793V19.6886C8.04793 19.9154 7.97009 20.1038 7.8144 20.2537C7.65871 20.4039 7.47308 20.479 7.25752 20.479C7.04195 20.479 6.85632 20.4039 6.70063 20.2537C6.54494 20.1038 6.4671 19.9154 6.4671 19.6886Z" fill="#0A5DFF"/>
<path d="M19.6886 19.4011H14.5868C14.36 19.4011 14.1716 19.3233 14.0217 19.1676C13.8715 19.0119 13.7964 18.8263 13.7964 18.6107C13.7964 18.3951 13.8715 18.2095 14.0217 18.0538C14.1716 17.8981 14.36 17.8203 14.5868 17.8203H19.6886C19.9155 17.8203 20.1038 17.8981 20.2538 18.0538C20.404 18.2095 20.479 18.3951 20.479 18.6107C20.479 18.8263 20.404 19.0119 20.2538 19.1676C20.1038 19.3233 19.9155 19.4011 19.6886 19.4011Z" fill="#0A5DFF"/>
<path d="M19.6886 15.7365H14.5868C14.36 15.7365 14.1716 15.6586 14.0217 15.5029C13.8715 15.3473 13.7964 15.1616 13.7964 14.9461C13.7964 14.7305 13.8715 14.5449 14.0217 14.3892C14.1716 14.2335 14.36 14.1556 14.5868 14.1556H19.6886C19.9155 14.1556 20.1038 14.2335 20.2538 14.3892C20.404 14.5449 20.479 14.7305 20.479 14.9461C20.479 15.1616 20.404 15.3473 20.2538 15.5029C20.1038 15.6586 19.9155 15.7365 19.6886 15.7365Z" fill="#0A5DFF"/>
<path d="M9.77248 7.61673H4.67069C4.44387 7.61673 4.25549 7.53888 4.10555 7.3832C3.95537 7.22751 3.88028 7.04188 3.88028 6.82631C3.88028 6.61074 3.95537 6.42511 4.10555 6.26943C4.25549 6.11374 4.44387 6.03589 4.67069 6.03589H9.77248C9.99931 6.03589 10.1877 6.11374 10.3376 6.26943C10.4878 6.42511 10.5629 6.61074 10.5629 6.82631C10.5629 7.04188 10.4878 7.22751 10.3376 7.3832C10.1877 7.53888 9.99931 7.61673 9.77248 7.61673Z" fill="#0A5DFF"/>
<path d="M18.6467 9.48499L17.1018 7.97601L15.6288 9.44906C15.4611 9.61672 15.2831 9.70056 15.0949 9.70056C14.9068 9.70056 14.7272 9.61672 14.5559 9.44906C14.3849 9.2814 14.2934 9.08978 14.2815 8.87421C14.2695 8.65864 14.3473 8.479 14.515 8.33529L16.024 6.82631L14.515 5.31733C14.3473 5.14967 14.2635 4.95805 14.2635 4.74248C14.2635 4.52691 14.3473 4.3353 14.515 4.16763C14.6827 3.99997 14.8715 3.92213 15.0816 3.9341C15.2919 3.94608 15.4743 4.02392 15.6288 4.16763L17.1018 5.67661L18.6108 4.16763C18.7785 3.99997 18.9701 3.91614 19.1856 3.91614C19.4012 3.91614 19.5928 3.99997 19.7605 4.16763C19.9281 4.3353 20.006 4.5329 19.994 4.76045C19.982 4.98799 19.9042 5.17362 19.7605 5.31733L18.2515 6.82631L19.7605 8.33529C19.9521 8.50583 20.0479 8.68619 20.0479 8.87637C20.0479 9.06655 19.9521 9.25744 19.7605 9.44906C19.5928 9.61672 19.4012 9.70056 19.1856 9.70056C18.9701 9.70056 18.7904 9.6287 18.6467 9.48499Z" fill="#0A5DFF"/>
</g>
</g>
</svg>
