<svg width="24" height="24" viewBox="0 0 24 24" fill="none" xmlns="http://www.w3.org/2000/svg">
<path d="M21.1911 4.58399C16.0437 4.58366 10.8936 4.58366 5.74214 4.58399C4.41668 4.58433 3.85046 5.15224 3.85046 6.48312V20.2595C3.85046 21.6053 4.12138 21.9771 5.37504 22.3558L21.5223 22.3605L21.5372 22.3558C22.8099 21.9785 23.0679 21.6277 23.0679 20.2697V6.45061C23.0679 5.16003 22.4888 4.58433 21.1911 4.58399ZM5.77126 21.3811C4.97409 21.3811 4.80206 21.2138 4.80206 20.4383C4.80138 15.7738 4.80138 11.1093 4.80206 6.44485C4.80206 5.69238 4.98628 5.5085 5.74214 5.5085C8.31787 5.50816 10.8929 5.50782 13.468 5.50782C16.0437 5.50782 18.6188 5.50816 21.1945 5.5085C21.9334 5.50883 22.1244 5.69543 22.1244 6.41539C22.1265 11.1083 22.1271 15.8016 22.1244 20.4946C22.1238 21.1983 21.9389 21.3805 21.2236 21.3811C19.2866 21.3818 17.3495 21.3825 15.4132 21.3825L5.77126 21.3811Z" fill="black"/>
<path d="M2.98555 18.4655C1.94659 18.4302 1.87412 18.3544 1.87412 17.3066V3.60807C1.8748 2.73877 2.02854 2.5857 2.90428 2.5857H18.19L18.2903 2.58469C18.3851 2.58401 18.4759 2.58164 18.5639 2.5918C18.9628 2.63582 19.1681 2.84985 19.1924 3.24674C19.2012 3.3971 19.1992 3.55253 19.1965 3.70255C19.1958 3.7713 19.1945 3.84004 19.1945 3.90845V4.01241H20.1034L20.1169 3.92403C20.226 3.20915 20.1034 2.62397 19.7634 2.23182C19.4227 1.83865 18.8768 1.63953 18.1406 1.63953C18.1284 1.63953 18.1162 1.63953 18.104 1.63987C13.1273 1.68524 8.25623 1.66967 2.86228 1.64664H2.84603C1.85244 1.64664 1.24627 2.03507 0.93878 2.86813L0.932007 18.1464L0.942166 18.1912C1.33974 19.0262 1.83687 19.4069 2.58189 19.4069C2.78033 19.4069 2.99639 19.3805 3.23209 19.3276L3.31404 19.3094V18.5041L3.1393 18.4817C3.08308 18.4736 3.03432 18.4675 2.98555 18.4655Z" fill="black"/>
<path d="M21.5948 7.52991H5.33508V8.39447H21.5948V7.52991Z" fill="black"/>
<path d="M17.349 15.4369C17.3707 15.2742 17.3815 15.106 17.3815 14.9271C17.3815 14.7535 17.3707 14.58 17.3436 14.4173L18.4445 13.5604C18.5421 13.4845 18.5692 13.338 18.5096 13.2296L17.4683 11.429C17.4032 11.3097 17.2676 11.2718 17.1483 11.3097L15.8522 11.8304C15.581 11.6243 15.2936 11.4507 14.9736 11.3206L14.7783 9.94306C14.7566 9.8129 14.6482 9.7207 14.518 9.7207H12.4355C12.3053 9.7207 12.2023 9.8129 12.1806 9.94306L11.9853 11.3206C11.6654 11.4507 11.3725 11.6297 11.1068 11.8304L9.8106 11.3097C9.69129 11.2663 9.5557 11.3097 9.49063 11.429L8.45478 13.2296C8.3897 13.3435 8.41139 13.4845 8.51986 13.5604L9.62078 14.4173C9.59367 14.58 9.57198 14.7589 9.57198 14.9271C9.57198 15.0952 9.58282 15.2742 9.60994 15.4369L8.50901 16.2937C8.41139 16.3697 8.38427 16.5161 8.44393 16.6246L9.4852 18.4251C9.55028 18.5444 9.68587 18.5824 9.80518 18.5444L11.1013 18.0238C11.3725 18.2299 11.6599 18.4034 11.9799 18.5336L12.1752 19.9111C12.2023 20.0412 12.3053 20.1334 12.4355 20.1334H14.518C14.6482 20.1334 14.7566 20.0412 14.7729 19.9111L14.9682 18.5336C15.2881 18.4034 15.581 18.2299 15.8467 18.0238L17.1429 18.5444C17.2622 18.5878 17.3978 18.5444 17.4629 18.4251L18.5041 16.6246C18.5692 16.5052 18.5421 16.3697 18.4391 16.2937L17.349 15.4369ZM13.4767 16.8795C12.4029 16.8795 11.5244 16.0009 11.5244 14.9271C11.5244 13.8533 12.4029 12.9747 13.4767 12.9747C14.5506 12.9747 15.4291 13.8533 15.4291 14.9271C15.4291 16.0009 14.5506 16.8795 13.4767 16.8795Z" fill="#0A5DFF"/>
</svg>
