<svg width="24" height="24" viewBox="0 0 24 24" fill="none" xmlns="http://www.w3.org/2000/svg"><g clip-path="url(#clip0_10424_10)"><path d="M9.55047 12.9553H7.24278C6.18058 12.9553 5.3197 13.8162 5.3197 14.8784V17.1861C5.3197 18.2479 6.18058 19.1092 7.24278 19.1092H9.55047C10.6127 19.1092 11.4735 18.2479 11.4735 17.1861V14.8784C11.4735 13.8162 10.6127 12.9553 9.55047 12.9553ZM9.93509 17.1861C9.93509 17.3983 9.76269 17.5707 9.55047 17.5707H7.24278C7.03019 17.5707 6.85816 17.3983 6.85816 17.1861V14.8784C6.85816 14.6658 7.03019 14.4938 7.24278 14.4938H9.55047C9.76269 14.4938 9.93509 14.6658 9.93509 14.8784V17.1861Z" fill="#373737"/><path d="M17.2428 5.26294H14.9351C13.8729 5.26294 13.012 6.12382 13.012 7.18602V9.49371C13.012 10.5555 13.8729 11.4168 14.9351 11.4168H17.2428C18.305 11.4168 19.1659 10.5555 19.1659 9.49371V7.18602C19.1659 6.12382 18.305 5.26294 17.2428 5.26294ZM17.6274 9.49371C17.6274 9.70592 17.455 9.87832 17.2428 9.87832H14.9351C14.7225 9.87832 14.5505 9.70592 14.5505 9.49371V7.18602C14.5505 6.97343 14.7225 6.8014 14.9351 6.8014H17.2428C17.455 6.8014 17.6274 6.97343 17.6274 7.18602V9.49371Z" fill="#373737"/><path d="M18.7813 2.18604H5.70434C3.79253 2.18604 2.2428 3.73576 2.2428 5.64757V18.7245C2.2428 20.6359 3.79253 22.186 5.70434 22.186H18.7813C20.6931 22.186 22.2428 20.6359 22.2428 18.7245V5.64757C22.2428 3.73576 20.6931 2.18604 18.7813 2.18604ZM20.7043 18.7245C20.7043 19.7863 19.8435 20.6476 18.7813 20.6476H5.70434C4.64214 20.6476 3.78126 19.7863 3.78126 18.7245V5.64757C3.78126 4.58537 4.64214 3.7245 5.70434 3.7245H18.7813C19.8435 3.7245 20.7043 4.58537 20.7043 5.64757V18.7245Z" fill="#373737"/><path d="M9.55047 5.26294H7.24278C6.18058 5.26294 5.3197 6.12382 5.3197 7.18602V9.49371C5.3197 10.5555 6.18058 11.4168 7.24278 11.4168H9.55047C10.6127 11.4168 11.4735 10.5555 11.4735 9.49371V7.18602C11.4735 6.12382 10.6127 5.26294 9.55047 5.26294Z" fill="#0A5DFF"/><path d="M17.2428 12.9553H14.9351C13.8729 12.9553 13.012 13.8162 13.012 14.8784V17.1861C13.012 18.2479 13.8729 19.1092 14.9351 19.1092H17.2428C18.305 19.1092 19.1659 18.2479 19.1659 17.1861V14.8784C19.1659 13.8162 18.305 12.9553 17.2428 12.9553ZM17.6274 17.1861C17.6274 17.3983 17.455 17.5707 17.2428 17.5707H14.9351C14.7225 17.5707 14.5505 17.3983 14.5505 17.1861V14.8784C14.5505 14.6658 14.7225 14.4938 14.9351 14.4938H17.2428C17.455 14.4938 17.6274 14.6658 17.6274 14.8784V17.1861Z" fill="#373737"/></g><defs><clipPath id="clip0_10424_10"><rect width="20" height="20" fill="white" transform="translate(2.2428 2.18604)"/></clipPath></defs></svg>