<svg preserveAspectRatio="none" width="100%" height="100%" overflow="visible" style="display: block;" viewBox="0 0 24 24" fill="none" xmlns="http://www.w3.org/2000/svg">
<g id="Group 89">
<g id="Vector">
<path d="M7.23288 19.5945C6.42784 19.5945 5.7554 19.3245 5.21556 18.7844C4.67551 18.2446 4.40548 17.5722 4.40548 16.7671V16.5699C4.40548 16.3288 4.49315 16.1205 4.66849 15.9452C4.84384 15.7699 5.05205 15.6822 5.29315 15.6822C5.53425 15.6822 5.74247 15.7699 5.91781 15.9452C6.09315 16.1205 6.18082 16.3288 6.18082 16.5699V16.7671C6.18082 17.0301 6.29041 17.2712 6.50959 17.4904C6.72877 17.7096 6.96986 17.8192 7.23288 17.8192H21.1726C21.4356 17.8192 21.6767 17.7096 21.8959 17.4904C22.1151 17.2712 22.2247 17.0301 22.2247 16.7671V4.19452H6.18082V6.44384C6.18082 6.68493 6.09315 6.89315 5.91781 7.06849C5.74247 7.24384 5.53425 7.33151 5.29315 7.33151C5.05205 7.33151 4.84384 7.24384 4.66849 7.06849C4.49315 6.89315 4.40548 6.68493 4.40548 6.44384V2.8274C4.40548 2.02258 4.67551 1.35014 5.21556 0.810083C5.7554 0.270028 6.42784 0 7.23288 0H21.1726C21.9774 0 22.6499 0.270028 23.1899 0.810083C23.73 1.35014 24 2.02258 24 2.8274V16.7671C24 17.5722 23.73 18.2446 23.1899 18.7844C22.6499 19.3245 21.9774 19.5945 21.1726 19.5945H7.23288ZM2.8274 24C2.02236 24 1.34992 23.73 0.810082 23.1899C0.270027 22.6501 0 21.9776 0 21.1726V6.34521C0 6.10411 0.0876712 5.89589 0.263014 5.72055C0.438356 5.54521 0.646575 5.45753 0.887671 5.45753C1.12877 5.45753 1.33699 5.54521 1.51233 5.72055C1.68767 5.89589 1.77534 6.10411 1.77534 6.34521V21.1726C1.77534 21.4356 1.88493 21.6767 2.10411 21.8959C2.32329 22.1151 2.56438 22.2247 2.8274 22.2247H17.6548C17.8959 22.2247 18.1041 22.3123 18.2795 22.4877C18.4548 22.663 18.5425 22.8712 18.5425 23.1123C18.5425 23.3534 18.4548 23.5616 18.2795 23.737C18.1041 23.9123 17.8959 24 17.6548 24H2.8274Z" fill="#373737"/>
<path d="M5.29313 12.3945H15.5507L12.9863 14.9918C12.8109 15.1671 12.7287 15.3644 12.7397 15.5836C12.7507 15.8028 12.8438 16 13.0192 16.1754C13.1886 16.3507 13.3899 16.4439 13.6231 16.4548C13.8561 16.4658 14.0603 16.3836 14.2356 16.2082L17.9507 12.4932C18.2356 12.2082 18.3781 11.8785 18.3781 11.5039C18.3781 11.1293 18.2356 10.8015 17.9507 10.5206L14.2685 6.80549C14.0931 6.63015 13.8904 6.54248 13.6603 6.54248C13.4301 6.54248 13.2292 6.62829 13.0576 6.79991C12.8786 6.97897 12.7835 7.18632 12.7726 7.42193C12.7616 7.65755 12.8438 7.85755 13.0192 8.02193L15.5507 10.6192H5.29313C5.05203 10.6192 4.84381 10.7069 4.66847 10.8822C4.49313 11.0575 4.40546 11.2658 4.40546 11.5069C4.40546 11.748 4.49313 11.9562 4.66847 12.1315C4.84381 12.3069 5.05203 12.3945 5.29313 12.3945Z" fill="#0A5DFF"/>
</g>
</g>
</svg>
