<svg width="24" height="24" viewBox="0 0 24 24" fill="none" xmlns="http://www.w3.org/2000/svg"><path d="M9.7531 19.4851L7.79831 16.5078L5.82574 19.4851H2L5.89433 13.9243L2.15115 8.67212H6.11915L7.80594 11.2912L9.58163 8.67212H13.4213L9.74675 13.8087L13.7376 19.4851H9.7531Z" fill="#84aeff"/><path d="M21.5339 7.33847L21.2722 7.27624C20.8594 7.17716 20.458 7.12763 20.0808 7.12763C19.7645 7.12763 19.5422 7.19241 19.4241 7.32069C19.353 7.3969 19.2361 7.61029 19.2361 8.20473V8.67215H21.2722V11.3332H19.2361V19.4851H15.9947V11.3332H14.4819V8.67215H15.9947V8.15646C15.9947 7.24448 16.0912 6.57765 16.2906 6.1153C16.4976 5.63645 16.8787 5.24397 17.4236 4.94929C17.9545 4.66096 18.6277 4.51489 19.4228 4.51489C20.2192 4.51489 21.0118 4.63683 21.7777 4.87562L22 4.94548L21.5339 7.33847Z" fill="#84aeff"/></svg>