<svg width="24" height="24" viewBox="0 0 24 24" fill="none" xmlns="http://www.w3.org/2000/svg"><path d="M12 20.3333H5.33333C4.41292 20.3333 3.66667 19.5871 3.66667 18.6667V10.3333C3.66667 9.41252 4.41292 8.66667 5.33333 8.66667H7V7H5.33333C3.49211 7 2 8.49211 2 10.3333V18.6667C2 20.5075 3.49211 22 5.33333 22H12C13.8408 22 15.3333 20.5075 15.3333 18.6667H13.6667C13.6667 19.5871 12.9204 20.3333 12 20.3333Z" fill="#373737"/><path d="M18.6666 2H12C10.1587 2 8.66664 3.49211 8.66664 5.33333V13.6667C8.66664 15.5075 10.1587 17 12 17H18.6666C20.5075 17 22 15.5075 22 13.6667V5.33333C22 3.49211 20.5075 2 18.6666 2ZM20.3333 13.6667C20.3333 14.5871 19.5871 15.3333 18.6666 15.3333H12C11.0796 15.3333 10.3333 14.5871 10.3333 13.6667V5.33333C10.3333 4.41252 11.0796 3.66667 12 3.66667H18.6666C19.587 3.66667 20.3333 4.41252 20.3333 5.33333V13.6667Z" fill="#0A5DFF"/></svg>