<svg preserveAspectRatio="none" width="100%" height="100%" overflow="visible" style="display: block;" viewBox="0 0 24 24" fill="none" xmlns="http://www.w3.org/2000/svg">
<g id="Vector">
<path d="M3.08932 24C2.21159 24 1.47727 23.7045 0.886364 23.1136C0.295455 22.5227 0 21.7884 0 20.9107V17.2841C0 16.9764 0.110568 16.7119 0.331704 16.4908C0.552841 16.2697 0.817273 16.1591 1.125 16.1591C1.43273 16.1591 1.69716 16.2697 1.9183 16.4908C2.13943 16.7119 2.25 16.9764 2.25 17.2841V20.9107C2.25 21.1207 2.33739 21.3131 2.51216 21.4878C2.68693 21.6626 2.87932 21.75 3.08932 21.75H6.71591C7.02364 21.75 7.28807 21.8606 7.5092 22.0817C7.73034 22.3028 7.84091 22.5673 7.84091 22.875C7.84091 23.1827 7.73034 23.4472 7.5092 23.6683C7.28807 23.8894 7.02364 24 6.71591 24H3.08932ZM20.9107 24H17.2841C16.9764 24 16.7119 23.8894 16.4908 23.6683C16.2697 23.4472 16.1591 23.1827 16.1591 22.875C16.1591 22.5673 16.2697 22.3028 16.4908 22.0817C16.7119 21.8606 16.9764 21.75 17.2841 21.75H20.9107C21.1207 21.75 21.3131 21.6626 21.4878 21.4878C21.6626 21.3131 21.75 21.1207 21.75 20.9107V17.2841C21.75 16.9764 21.8606 16.7119 22.0817 16.4908C22.3028 16.2697 22.5673 16.1591 22.875 16.1591C23.1827 16.1591 23.4472 16.2697 23.6683 16.4908C23.8894 16.7119 24 16.9764 24 17.2841V20.9107C24 21.7884 23.7045 22.5227 23.1136 23.1136C22.5227 23.7045 21.7884 24 20.9107 24ZM0 6.71591V3.08932C0 2.21159 0.295455 1.47727 0.886364 0.886364C1.47727 0.295455 2.21159 0 3.08932 0H6.71591C7.02364 0 7.28807 0.110568 7.5092 0.331704C7.73034 0.55284 7.84091 0.817273 7.84091 1.125C7.84091 1.43273 7.73034 1.69716 7.5092 1.9183C7.28807 2.13943 7.02364 2.25 6.71591 2.25H3.08932C2.87932 2.25 2.68693 2.33739 2.51216 2.51216C2.33739 2.68693 2.25 2.87932 2.25 3.08932V6.71591C2.25 7.02364 2.13943 7.28807 1.9183 7.50921C1.69716 7.73034 1.43273 7.84091 1.125 7.84091C0.817273 7.84091 0.552841 7.73034 0.331704 7.50921C0.110568 7.28807 0 7.02364 0 6.71591ZM21.75 6.71591V3.08932C21.75 2.87932 21.6626 2.68693 21.4878 2.51216C21.3131 2.33739 21.1207 2.25 20.9107 2.25H17.2841C16.9764 2.25 16.7119 2.13943 16.4908 1.9183C16.2697 1.69716 16.1591 1.43273 16.1591 1.125C16.1591 0.817273 16.2697 0.55284 16.4908 0.331704C16.7119 0.110568 16.9764 0 17.2841 0H20.9107C21.7884 0 22.5227 0.295455 23.1136 0.886364C23.7045 1.47727 24 2.21159 24 3.08932V6.71591C24 7.02364 23.8894 7.28807 23.6683 7.50921C23.4472 7.73034 23.1827 7.84091 22.875 7.84091C22.5673 7.84091 22.3028 7.73034 22.0817 7.50921C21.8606 7.28807 21.75 7.02364 21.75 6.71591Z" fill="#373737"/>
<path d="M17.9427 17.5723H7.13123C5.16052 17.5723 3.55798 16.1489 3.55798 14.3999V10.3486C3.55798 9.93457 3.89392 9.59863 4.30798 9.59863C4.72205 9.59863 5.05798 9.93457 5.05798 10.3486V14.3999C5.05798 15.3223 5.98767 16.0723 7.13123 16.0723H17.9427C18.3568 16.0723 18.6927 16.4082 18.6927 16.8223C18.6927 17.2363 18.3568 17.5723 17.9427 17.5723Z" fill="#373737"/>
<path d="M18.6368 9.52759C18.6707 9.52759 18.6982 9.55518 18.6982 9.58905V13.3322C18.6982 13.366 18.6707 13.3936 18.6368 13.3936H7.72766C7.69372 13.3936 7.66614 13.366 7.66614 13.3322V9.58905C7.66614 9.55518 7.69373 9.52759 7.72766 9.52759H18.6368ZM18.6368 8.02759H7.72766C6.86523 8.02759 6.16614 8.72669 6.16614 9.58905V13.3322C6.16614 14.1945 6.86523 14.8936 7.72766 14.8936H18.6368C19.4991 14.8936 20.1982 14.1945 20.1982 13.3322V9.58905C20.1982 8.72668 19.4991 8.02759 18.6368 8.02759Z" fill="#0A5DFF"/>
</g>
</svg>
