<svg width="24" height="24" viewBox="0 0 24 24" fill="none" xmlns="http://www.w3.org/2000/svg"><path d="M14.8571 18.0714C14.8571 19.0578 14.0578 19.8571 13.0714 19.8571H5.92857C4.94294 19.8571 4.14286 19.0578 4.14286 18.0714V10.9286C4.14286 9.94224 4.94294 9.14286 5.92857 9.14286H7.30544L8.3685 7H5.92857C3.75921 7 2 8.75921 2 10.9286V18.0714C2 20.2415 3.75921 22 5.92857 22H13.0714C15.2415 22 17 20.2415 17 18.0714V16.0283L14.8571 18.093V18.0714Z" fill="#373737"/><path d="M21.248 7.92494H18.7878L21.9282 2.75056C21.9756 2.67313 22 2.58454 22 2.49386C22 2.22112 21.7789 2 21.5068 2H13.2305C12.8545 2 12.5113 2.21275 12.3446 2.54967L10.1369 7L9.0738 9.14286L8.2493 10.8058C8.19838 10.9083 8.17188 11.0206 8.17188 11.135C8.17188 11.5438 8.50391 11.8751 8.91267 11.8751H13.1119L11.5061 16.4838C11.1643 17.4667 12.376 18.2416 13.1244 17.5211L14.8571 15.8511L17 13.7864L21.7614 9.19936C21.9058 9.05985 21.9881 8.86733 21.9881 8.66643C21.9881 8.25767 21.6568 7.92564 21.248 7.92494Z" fill="#0A5DFF"/></svg>