<svg width="24" height="24" viewBox="0 0 24 24" fill="none" xmlns="http://www.w3.org/2000/svg"><path d="M7.28143 7.77213C6.91668 7.62186 6.49918 7.79573 6.34891 8.16048C6.20166 8.51791 6.36548 8.92762 6.71857 9.08499L11.2857 11.0428V15.5714C11.2857 15.9659 11.6055 16.2857 12 16.2857C12.3945 16.2857 12.7143 15.9659 12.7143 15.5714V11.0428L17.2814 9.0857C17.6442 8.93027 17.8122 8.51022 17.6568 8.14749C17.5014 7.78475 17.0813 7.6167 16.7186 7.77213L12 9.79427L7.28143 7.77213ZM13.5386 2.5407C12.5482 2.15977 11.4518 2.15977 10.4614 2.5407L3.37357 5.26713C2.54604 5.58543 2 6.3805 2 7.26713V16.7336C2 17.6202 2.54604 18.4153 3.37357 18.7336L10.4614 21.4593C11.4518 21.8402 12.5482 21.8402 13.5386 21.4593L20.6264 18.7336C21.454 18.4153 22 17.6202 22 16.7336V7.26713C22 6.3805 21.454 5.58543 20.6264 5.26713L13.5386 2.5407ZM10.9743 3.87427C11.6345 3.62032 12.3655 3.62032 13.0257 3.87427L20.1136 6.6007C20.3893 6.70677 20.5713 6.97167 20.5714 7.26713V16.7336C20.5713 17.029 20.3893 17.2939 20.1136 17.4L13.0257 20.1264C12.3655 20.3804 11.6345 20.3804 10.9743 20.1264L3.88643 17.4C3.61067 17.2939 3.42867 17.029 3.42857 16.7336V7.26713C3.42867 6.97167 3.61067 6.70677 3.88643 6.6007L10.9743 3.87427Z" fill="#d4d4d4"/></svg>