<svg width="24" height="24" viewBox="0 0 24 24" fill="none" xmlns="http://www.w3.org/2000/svg">
<path d="M15.858 11.4097V15.188C15.858 15.2319 15.8223 15.2676 15.7783 15.2676H11.8142C11.7702 15.2676 11.7346 15.3033 11.7346 15.3473V18.5509C11.7346 18.5949 11.7702 18.6306 11.8142 18.6306H15.6093C15.6533 18.6306 15.689 18.6662 15.689 18.7102V22.4546C15.689 22.4986 15.7246 22.5343 15.7686 22.5343H19.0568C19.1008 22.5343 19.1364 22.4986 19.1364 22.4546V18.7947C19.1364 18.7507 19.1721 18.7151 19.2161 18.7151H22.9098C22.9538 18.7151 22.9895 18.6794 22.9895 18.6354V15.3811C22.9895 15.3371 22.9538 15.3014 22.9098 15.3014H19.2668C19.2228 15.3014 19.1871 15.2657 19.1871 15.2218V11.4097C19.1871 11.3657 19.1515 11.3301 19.1075 11.3301H15.9376C15.8936 11.3301 15.858 11.3657 15.858 11.4097Z" fill="#0A5DFF"/>
<path d="M16.7179 9.80416V5.62216C16.7179 5.48258 16.6354 5.35511 16.505 5.29329L9.00991 2.02866C8.90009 1.97658 8.77093 1.9782 8.66258 2.03302L1.75284 5.06409C1.4798 5.20222 1.48121 5.57806 1.75527 5.71431L8.53816 9.08626C8.66494 9.14929 8.74454 9.27492 8.74454 9.41198V18.5538C8.74454 18.8055 9.0024 18.9824 9.25036 18.9009L10.1318 18.5254" stroke="black" stroke-width="1.4" stroke-miterlimit="10" stroke-linecap="round"/>
<path d="M16.7179 5.62219L8.91357 9.10778" stroke="black" stroke-width="1.4" stroke-miterlimit="10" stroke-linecap="round"/>
<path d="M1.53552 5.39246V15.3603C1.53552 15.5004 1.61866 15.6283 1.74976 15.6898L8.96394 18.8796" stroke="black" stroke-width="1.4" stroke-miterlimit="10" stroke-linecap="round"/>
</svg>
