<svg width="24" height="24" viewBox="0 0 24 24" fill="none" xmlns="http://www.w3.org/2000/svg"><path d="M8.39883 8.24356H4.51142C3.78348 8.24356 3.41893 9.12366 3.93366 9.63839L11.7771 17.4819C12.0963 17.801 12.6136 17.801 12.9327 17.4819L20.7762 9.63839C21.291 9.12366 20.9264 8.24356 20.1985 8.24356H16.3111V2.83456C16.3111 2.385 15.9479 2.0199 15.4983 2.01749L9.22027 2.00001C8.76731 1.99759 8.39883 2.36411 8.39883 2.81708L8.39883 8.24356Z" fill="#0A5DFF"/><path d="M20.2506 19.0533H3.74939C2.93569 19.0533 2.27606 19.713 2.27606 20.5267V20.5267C2.27606 21.3404 2.93569 22 3.74939 22H20.2506C21.0643 22 21.724 21.3404 21.724 20.5267C21.724 19.713 21.0643 19.0533 20.2506 19.0533Z" fill="#373737"/></svg>