<svg width="24" height="24" viewBox="0 0 24 24" fill="none" xmlns="http://www.w3.org/2000/svg"><path d="M18.1943 6.13007H12.4354L10.3928 4.08883C9.93499 3.63033 9.32531 3.37695 8.6766 3.37695H5.80496C3.70694 3.37695 2 5.0839 2 7.18191V16.8182C2 18.9162 3.70694 20.6231 5.80496 20.6231H18.1943C20.2923 20.6231 22 18.9162 22 16.8182V9.93503C22 7.83701 20.2923 6.13007 18.1943 6.13007ZM8.90656 8.78807C8.84481 8.84911 8.76319 8.88318 8.6766 8.88318H4.10369V7.18191C4.10369 6.24363 4.86667 5.47994 5.80496 5.47994H8.6766C8.76319 5.47994 8.84481 5.51401 8.90585 5.57433L10.5127 7.18191L8.90656 8.78807ZM18.1943 18.5194H5.80496C4.86667 18.5194 4.10369 17.7565 4.10369 16.8182V10.9869H8.6766C9.32531 10.9869 9.9357 10.7335 10.3942 10.2743L12.4354 8.23305H18.1943C19.1326 8.23305 19.8963 8.99674 19.8963 9.93503V16.8182C19.8963 17.7565 19.1326 18.5194 18.1943 18.5194Z" fill="#d4d4d4"/></svg>