<svg width="24" height="24" viewBox="0 0 24 24" fill="none" xmlns="http://www.w3.org/2000/svg"><path d="M18.6667 7H17V5.33333C17 3.49211 15.5075 2 13.6667 2H5.33333C3.49211 2 2 3.49211 2 5.33333V13.6667C2 15.5075 3.49211 17 5.33333 17H7V18.6667C7 20.5075 8.49211 22 10.3333 22H18.6667C20.5075 22 22 20.5075 22 18.6667V10.3333C22 8.49211 20.5075 7 18.6667 7ZM7 10.3333V15.3333H5.33333C4.41292 15.3333 3.66667 14.5871 3.66667 13.6667V5.33333C3.66667 4.41252 4.41292 3.66667 5.33333 3.66667H13.6667C14.5871 3.66667 15.3333 4.41252 15.3333 5.33333V7H10.3333C8.49211 7 7 8.49211 7 10.3333ZM15.3333 8.66667V13.6667C15.3333 14.5871 14.5871 15.3333 13.6667 15.3333H8.66667V10.3333C8.66667 9.41252 9.41292 8.66667 10.3333 8.66667H15.3333ZM20.3333 18.6667C20.3333 19.5871 19.5871 20.3333 18.6667 20.3333H10.3333C9.41292 20.3333 8.66667 19.5871 8.66667 18.6667V17H13.6667C15.2491 17.0008 16.6143 15.8883 16.9333 14.3381C16.978 14.1171 17.0004 13.8921 17 13.6667V8.66667H18.6667C19.5871 8.66667 20.3333 9.41252 20.3333 10.3333V18.6667Z" fill="#373737"/><path d="M14.2558 9.84216V13.0789C14.2558 13.6747 13.7728 14.1578 13.1769 14.1578H9.94025V10.9211C9.94025 10.325 10.4233 9.84216 11.0191 9.84216H14.2558Z" fill="#0A5DFF"/></svg>