<svg preserveAspectRatio="none" width="100%" height="100%" overflow="visible" style="display: block;" viewBox="0 0 23.8957 23.8751" fill="none" xmlns="http://www.w3.org/2000/svg">
<g id="Vector">
<path d="M23.8015 15.4467C23.7631 15.3676 23.7189 15.2983 23.6686 15.239C23.6186 15.1797 23.5624 15.1302 23.5003 15.0907C23.3762 15.0116 23.2282 14.972 23.0563 14.972H20.3629L21.0317 9.69855C21.0402 9.62171 21.0361 9.54858 21.0195 9.47907C21.0028 9.40961 20.9736 9.34375 20.9316 9.28162C20.8897 9.21942 20.8199 9.18695 20.7641 9.13959C20.7082 9.09229 20.6663 9.03009 20.5965 8.99762C20.5202 8.96197 20.4433 8.94647 20.3669 8.94403C20.3613 8.94385 20.3558 8.94019 20.3503 8.94019C20.341 8.94019 20.3316 8.94428 20.3222 8.94476V8.94983C20.2739 8.95239 20.2254 8.95276 20.177 8.96869C20.1071 8.99164 20.0424 9.02551 19.9826 9.07031C19.9228 9.11511 19.8681 9.17084 19.8186 9.23749L14.3226 17.2303C14.1369 17.495 14.1152 17.7743 14.2576 18.0682C14.4001 18.3621 14.64 18.5091 14.9771 18.5091H17.1489L16.5056 23.1233C16.4885 23.2631 16.5087 23.3951 16.5664 23.5194C16.5952 23.5815 16.6357 23.6367 16.6877 23.6849C16.7397 23.733 16.8032 23.7741 16.8784 23.8082C16.9727 23.851 17.0644 23.8679 17.1545 23.8726C17.2082 23.8753 17.2617 23.8782 17.3139 23.8675C17.4536 23.8387 17.5677 23.7645 17.6563 23.6451L23.7014 16.318C23.8662 16.1196 23.9262 15.9067 23.8813 15.6791C23.8663 15.6032 23.8397 15.5258 23.8015 15.4467Z" fill="#0A5DFF"/>
<path d="M19.834 7.92432C20.2314 7.79053 20.668 7.8169 21.0605 8.00049C21.3838 8.15088 21.6465 8.37451 21.8437 8.6665C21.8506 8.67627 21.8555 8.68311 21.8604 8.69092H22.3359V2.80078C22.3359 2.00879 22.0654 1.33643 21.5322 0.803223C20.999 0.270019 20.3271 0 19.5342 0H2.80078C2.00781 0 1.33594 0.27002 0.802734 0.803223C0.270507 1.33594 0 2.00781 0 2.80078V19.5347C0 20.3276 0.270508 20.9995 0.802734 21.5327C1.33594 22.0649 2.00781 22.3355 2.80078 22.3355H15.377L15.7568 19.6089H14.9775C14.4375 19.6089 13.9619 19.4038 13.6113 19.0239V20.4224H8.70898V15.5024H13.6113V16.3228L15.5215 13.5464V8.68994H18.8613L18.9346 8.5835C19.1689 8.26709 19.4795 8.04053 19.834 7.92432ZM6.79785 20.4224H2.80078C2.57715 20.4224 2.37109 20.3306 2.18848 20.147C2.00488 19.9644 1.91309 19.7583 1.91309 19.5347V15.5024H6.79785V20.4224ZM6.79785 13.5923H1.91309V8.68994H6.79785V13.5923ZM6.79785 6.77881H1.91309V2.80078C1.91309 2.57764 2.00488 2.37158 2.1875 2.18799C2.37109 2.00537 2.57715 1.9126 2.80078 1.9126H6.79785L6.79785 6.77881ZM13.6113 13.5923H8.70898V8.68994H13.6113V13.5923ZM13.6113 6.77881H8.70898V1.9126H13.6113V6.77881ZM15.5215 6.77881V1.9126H19.5342C19.7578 1.9126 19.9639 2.00537 20.1465 2.18799C20.3301 2.37158 20.4219 2.57764 20.4219 2.80078V6.77881H15.5215Z" fill="#373737"/>
</g>
</svg>
