<svg width="24" height="24" viewBox="0 0 24 24" fill="none" xmlns="http://www.w3.org/2000/svg"><path d="M18.6667 21.6297C20.5076 21.6297 22 20.1373 22 18.2963V5.7036C22 3.86264 20.5076 2.37024 18.6667 2.37024H10.1481C9.73899 2.37024 9.40735 2.70188 9.40735 3.11099C9.40735 3.52009 9.73899 3.85173 10.1481 3.85173H18.6667C19.6894 3.85173 20.5185 4.68084 20.5185 5.7036V18.2963C20.5185 19.319 19.6894 20.1482 18.6667 20.1482H10.1481C9.73899 20.1482 9.40735 20.4798 9.40735 20.8889C9.40735 21.298 9.73899 21.6297 10.1481 21.6297H18.6667Z" fill="#d4d4d4"/><path d="M11.4127 6.29096C11.1285 5.9967 10.6595 5.98855 10.3653 6.27276C10.071 6.55697 10.0628 7.02591 10.347 7.32017C10.353 7.32635 10.3591 7.33241 10.3653 7.33838L14.286 11.2591H2.74075C2.33164 11.2591 2 11.5908 2 11.9999C2 12.409 2.33164 12.7406 2.74075 12.7406H14.286L10.3653 16.6614C10.081 16.9557 10.0892 17.4246 10.3835 17.7088C10.6705 17.9861 11.1256 17.9861 11.4127 17.7088L16.5979 12.5236C16.8871 12.2343 16.8871 11.7654 16.5979 11.4762L11.4127 6.29096Z" fill="#009858"/></svg>