<svg preserveAspectRatio="none" width="100%" height="100%" overflow="visible" style="display: block;" viewBox="0 0 24 24" fill="none" xmlns="http://www.w3.org/2000/svg">
<g id="Group 87">
<g id="Vector">
<path d="M12.9013 24C12.6421 24 12.4183 23.9059 12.2297 23.7176C12.0412 23.5294 11.947 23.3059 11.947 23.0471C11.947 22.7882 12.0412 22.5647 12.2297 22.3765C12.4183 22.1882 12.6421 22.0941 12.9013 22.0941H20.9602C21.243 22.0941 21.5022 21.9765 21.7379 21.7412C21.9735 21.5059 22.0913 21.2471 22.0913 20.9647V3.03529C22.0913 2.75294 21.9735 2.49412 21.7379 2.25882C21.5022 2.02353 21.243 1.90588 20.9602 1.90588H12.9013C12.6421 1.90588 12.4183 1.81176 12.2297 1.62353C12.0412 1.43529 11.947 1.21176 11.947 0.952941C11.947 0.694118 12.0412 0.470588 12.2297 0.282353C12.4183 0.0941176 12.6421 0 12.9013 0H20.9602C21.8321 0 22.5567 0.288235 23.134 0.864706C23.7113 1.44118 24 2.16471 24 3.03529V20.9647C24 21.8353 23.7113 22.5588 23.134 23.1353C22.5567 23.7118 21.8321 24 20.9602 24H12.9013Z" fill="#373737"/>
<path d="M0.954345 12.9177H12.3004L9.54946 15.6706C9.31476 15.9059 9.20342 16.1471 9.21544 16.3941C9.22722 16.6412 9.35046 16.8706 9.58515 17.0824C9.79605 17.3177 10.0362 17.4235 10.3055 17.4C10.5751 17.3765 10.8041 17.2706 10.9926 17.0824L15.0221 13.0588C15.3284 12.753 15.4816 12.4 15.4816 12C15.4816 11.6 15.3284 11.2471 15.0221 10.9412L10.9573 6.88237C10.7452 6.6706 10.5214 6.55884 10.2857 6.54707C10.0501 6.53531 9.81443 6.63531 9.57879 6.84707C9.34315 7.05884 9.23122 7.30001 9.243 7.5706C9.25479 7.84119 9.36672 8.08237 9.57879 8.29413L12.3004 11.0118H0.954345C0.69514 11.0118 0.471281 11.1059 0.282769 11.2941C0.0942563 11.4824 0 11.7059 0 11.9647C0 12.2235 0.0942563 12.4471 0.282769 12.6353C0.471281 12.8235 0.69514 12.9177 0.954345 12.9177Z" fill="#0A5DFF"/>
</g>
</g>
</svg>
