<svg width="24" height="24" viewBox="0 0 24 24" fill="none" xmlns="http://www.w3.org/2000/svg">
<path d="M13.8735 13.3218C13.8097 13.2922 13.7466 13.2607 13.6834 13.2298C13.5778 13.1776 13.4721 13.1255 13.3616 13.0815L12.724 12.8338L13.295 12.4567C14.9881 11.3339 15.999 9.45384 15.999 7.42723C15.999 6.75159 15.8672 6.0526 15.6071 5.34984C14.7321 2.98422 12.4653 1.39478 9.96651 1.39478C9.43464 1.39478 8.89042 1.48331 8.25354 1.67375C7.7553 1.82268 7.29274 2.02444 6.87891 2.27391C5.03554 3.38295 3.93474 5.30935 3.93474 7.42723C3.93474 9.06025 4.61965 10.6487 5.81448 11.7855C6.11027 12.0665 6.37243 12.2796 6.63939 12.4567L7.2097 12.8338L6.57214 13.0822C6.14527 13.2476 5.71085 13.4638 5.20506 13.7623C3.47012 14.7877 2.1353 16.305 1.34538 18.1498C1.16146 18.5828 1.01253 19.033 0.884882 19.5368L0.834783 19.7344C0.807331 19.8387 0.77988 19.943 0.755859 20.0487H1.87451C1.91088 19.906 1.95549 19.7687 1.99872 19.6349C2.02274 19.5628 2.04608 19.4908 2.06804 19.418L2.09069 19.3391C2.10235 19.2993 2.11333 19.2595 2.12637 19.2197C2.2801 18.7565 2.47226 18.3104 2.69668 17.8945C3.48385 16.4361 4.67181 15.2605 6.13154 14.4946C7.79716 13.621 9.58494 13.3252 11.4715 13.6745C11.9698 13.7665 12.4824 13.9195 13.0397 14.1419C13.8015 14.4473 14.5324 14.8851 15.2132 15.4424H16.7992C15.9516 14.5372 14.9689 13.8248 13.8735 13.3218ZM9.96648 12.3575C8.94326 12.3575 7.99247 12.0433 7.20386 11.5075C6.72635 11.1831 6.3175 10.77 5.97953 10.3026C5.3927 9.49123 5.03688 8.50285 5.03688 7.42724C5.03688 5.97387 5.68079 4.67883 6.68452 3.77574C7.1207 3.38316 7.6198 3.06384 8.17498 2.84592C8.73175 2.62728 9.333 2.49696 9.96648 2.49696C12.6849 2.49696 14.8967 4.7088 14.8967 7.42724C14.8967 10.1456 12.6849 12.3575 9.96648 12.3575Z" fill="black"/>
<path d="M22.2803 16.7114L21.1865 15.6177L18.3142 12.7456L17.1844 13.8754L18.9239 15.6177L20.1785 16.8744H18.3425H16.5843H13.4772V18.476H17.5578H19.1154H20.1785L19.3841 19.2717L18.5144 20.1429L18.4327 20.2247L17.1844 21.475L18.3142 22.6051L20.7765 20.1429L22.2803 18.639L23.2441 17.6752L22.2803 16.7114Z" fill="#009858"/>
</svg>
