<svg preserveAspectRatio="none" width="100%" height="100%" overflow="visible" style="display: block;" viewBox="0 0 23 24" fill="none" xmlns="http://www.w3.org/2000/svg">
<g id="Group 88">
<g id="Vector">
<path d="M2.98792 24C2.13092 24 1.41868 23.7118 0.851208 23.1353C0.283736 22.5588 0 21.8353 0 20.9647V3.03529C0 2.16471 0.283736 1.44118 0.851208 0.864706C1.41868 0.288235 2.13092 0 2.98792 0H10.9094C11.1641 0 11.3842 0.0941176 11.5695 0.282353C11.7548 0.470588 11.8474 0.694118 11.8474 0.952941C11.8474 1.21176 11.7548 1.43529 11.5695 1.62353C11.3842 1.81176 11.1641 1.90588 10.9094 1.90588H2.98792C2.70997 1.90588 2.45519 2.02353 2.22356 2.25882C1.99194 2.49412 1.87613 2.75294 1.87613 3.03529V20.9647C1.87613 21.2471 1.99194 21.5059 2.22356 21.7412C2.45519 21.9765 2.70997 22.0941 2.98792 22.0941H10.9094C11.1641 22.0941 11.3842 22.1882 11.5695 22.3765C11.7548 22.5647 11.8474 22.7882 11.8474 23.0471C11.8474 23.3059 11.7548 23.5294 11.5695 23.7176C11.3842 23.9059 11.1641 24 10.9094 24H2.98792Z" fill="#373737"/>
<path d="M8.72054 12.9177H19.8731L17.1631 15.6706C16.9315 15.9059 16.8215 16.1471 16.8331 16.3941C16.8447 16.6412 16.9663 16.8706 17.1979 17.0824C17.4063 17.3177 17.6438 17.4235 17.9101 17.4C18.1765 17.3765 18.4023 17.2706 18.5876 17.0824L22.5483 13.0588C22.8494 12.753 23 12.4 23 12C23 11.6 22.8494 11.2471 22.5483 10.9412L18.5529 6.88237C18.3444 6.6706 18.1244 6.55884 17.8927 6.54707C17.6611 6.53531 17.4295 6.63531 17.1979 6.84707C16.9663 7.05884 16.8562 7.30001 16.8678 7.5706C16.8794 7.84119 16.9894 8.08237 17.1979 8.29413L19.8731 11.0118H8.72054C8.46575 11.0118 8.24571 11.1059 8.06042 11.2941C7.87512 11.4824 7.78247 11.7059 7.78247 11.9647C7.78247 12.2235 7.87512 12.4471 8.06042 12.6353C8.24571 12.8235 8.46575 12.9177 8.72054 12.9177Z" fill="#0A5DFF"/>
</g>
</g>
</svg>
