<svg width="24" height="24" viewBox="0 0 24 24" fill="none" xmlns="http://www.w3.org/2000/svg"><path d="M5.33336 2.37024C3.4924 2.37024 2 3.86264 2 5.7036V18.2963C2 20.1373 3.4924 21.6297 5.33336 21.6297H13.8519C14.261 21.6297 14.5927 21.298 14.5927 20.8889C14.5927 20.4798 14.261 20.1482 13.8519 20.1482H5.33336C4.3106 20.1482 3.48149 19.319 3.48149 18.2963V5.7036C3.48149 4.68084 4.3106 3.85173 5.33336 3.85173H13.8519C14.261 3.85173 14.5927 3.52009 14.5927 3.11099C14.5927 2.70188 14.261 2.37024 13.8519 2.37024H5.33336Z" fill="#373737"/><path d="M16.5978 6.29096C16.3136 5.9967 15.8447 5.98855 15.5504 6.27276C15.2562 6.55697 15.248 7.02591 15.5322 7.32017C15.5382 7.32635 15.5443 7.33242 15.5504 7.33838L19.4712 11.2591H7.92593C7.51682 11.2591 7.18518 11.5908 7.18518 11.9999C7.18518 12.409 7.51682 12.7406 7.92593 12.7406H19.4712L15.5504 16.6614C15.2662 16.9557 15.2744 17.4246 15.5687 17.7088C15.8557 17.9861 16.3108 17.9861 16.5978 17.7088L21.7831 12.5236C22.0722 12.2343 22.0722 11.7654 21.7831 11.4762L16.5978 6.29096Z" fill="#F67D02"/></svg>