<svg preserveAspectRatio="none" width="100%" height="100%" overflow="visible" style="display: block;" viewBox="0 0 24 24" fill="none" xmlns="http://www.w3.org/2000/svg">
<g id="Group 94">
<g id="Vector">
<path d="M8.88883 18.7975C8.75196 18.9325 8.59008 19 8.4032 19H4.6912C4.50432 19 4.34244 18.9322 4.20557 18.7965C4.06852 18.6609 4 18.5006 4 18.3154C4 18.1305 4.06852 17.9705 4.20557 17.8354C4.34244 17.7004 4.50432 17.6329 4.6912 17.6329H8.4032C8.59008 17.6329 8.75196 17.7008 8.88883 17.8365C9.02588 17.972 9.0944 18.1323 9.0944 18.3175C9.0944 18.5024 9.02588 18.6624 8.88883 18.7975ZM19.7947 12.4937C19.6576 12.6287 19.4957 12.6962 19.3088 12.6962H12.8832C12.6963 12.6962 12.5344 12.6284 12.3973 12.4927C12.2604 12.3571 12.192 12.1968 12.192 12.0116C12.192 11.8267 12.2604 11.6667 12.3973 11.5316C12.5344 11.3966 12.6963 11.3291 12.8832 11.3291L19.3088 11.3291C19.4957 11.3291 19.6576 11.397 19.7947 11.5327C19.9316 11.6682 20 11.8285 20 12.0137C20 12.1986 19.9316 12.3586 19.7947 12.4937ZM11.6027 6.16456C11.4656 6.29958 11.3037 6.36709 11.1168 6.36709L4.6912 6.36709C4.50432 6.36709 4.34244 6.29924 4.20557 6.16354C4.06852 6.02802 4 5.86768 4 5.68253C4 5.49755 4.06852 5.33755 4.20557 5.20253C4.34244 5.06751 4.50432 5 4.6912 5L11.1168 5C11.3037 5 11.4656 5.06785 11.6027 5.20354C11.7396 5.33907 11.808 5.49941 11.808 5.68456C11.808 5.86953 11.7396 6.02954 11.6027 6.16456Z" fill="black"/>
<path d="M19.3088 18.9608C19.4957 18.9608 19.6576 18.8937 19.7947 18.7594C19.9316 18.6252 20 18.4661 20 18.2821C20 18.098 19.9316 17.9386 19.7947 17.8038C19.6576 17.6689 19.4957 17.6014 19.3088 17.6014H13.5488V16.2168C13.5488 16.033 13.4805 15.8737 13.344 15.739C13.2075 15.6044 13.0457 15.5371 12.8586 15.5371C12.6714 15.5371 12.5093 15.6044 12.3722 15.739C12.235 15.8737 12.1664 16.033 12.1664 16.2168V20.3203C12.1664 20.5041 12.2347 20.6633 12.3712 20.7981C12.5077 20.9327 12.6695 21 12.8566 21C13.0438 21 13.2059 20.9327 13.343 20.7981C13.4802 20.6633 13.5488 20.5041 13.5488 20.3203V18.9608H19.3088Z" fill="#0A5DFF"/>
<path d="M8.91418 14.5296C9.05139 14.3948 9.12 14.2355 9.12 14.0517L9.12 9.94825C9.12 9.76448 9.05173 9.60529 8.9152 9.47069C8.77867 9.33592 8.61687 9.26853 8.42982 9.26853C8.2426 9.26853 8.08047 9.33592 7.94342 9.47069C7.80621 9.60529 7.7376 9.76448 7.7376 9.94825L7.7376 11.3329H4.6912C4.50432 11.3329 4.34244 11.4 4.20557 11.5343C4.06852 11.6685 4 11.8276 4 12.0116C4 12.1957 4.06852 12.3551 4.20557 12.4899C4.34244 12.6248 4.50432 12.6923 4.6912 12.6923H7.7376V14.0517C7.7376 14.2355 7.80587 14.3948 7.9424 14.5296C8.07893 14.6642 8.24073 14.7315 8.42778 14.7315C8.615 14.7315 8.77713 14.6642 8.91418 14.5296Z" fill="#0A5DFF"/>
<path d="M19.3088 6.3986C19.4957 6.3986 19.6576 6.33147 19.7947 6.1972C19.9316 6.06294 20 5.90383 20 5.71989C20 5.53577 19.9316 5.37633 19.7947 5.24157C19.6576 5.10663 19.4957 5.03916 19.3088 5.03916H16.2624V3.67972C16.2624 3.49594 16.1941 3.33676 16.0576 3.20215C15.9211 3.06738 15.7593 3 15.5722 3C15.385 3 15.2229 3.06738 15.0858 3.20215C14.9486 3.33676 14.88 3.49594 14.88 3.67972V7.78322C14.88 7.96699 14.9483 8.12618 15.0848 8.26078C15.2213 8.39555 15.3831 8.46294 15.5702 8.46294C15.7574 8.46294 15.9195 8.39555 16.0566 8.26078C16.1938 8.12618 16.2624 7.96699 16.2624 7.78322V6.3986H19.3088Z" fill="#0A5DFF"/>
<path d="M3.08982 24C2.20359 24 1.46707 23.7066 0.88024 23.1198C0.293413 22.5329 0 21.7964 0 20.9102V3.08982C0 2.20359 0.293413 1.46707 0.88024 0.88024C1.46707 0.293413 2.20359 0 3.08982 0H20.9102C21.7964 0 22.5329 0.293413 23.1198 0.88024C23.7066 1.46707 24 2.20359 24 3.08982V20.9102C24 21.7964 23.7066 22.5329 23.1198 23.1198C22.5329 23.7066 21.7964 24 20.9102 24H3.08982ZM3.08982 22.0599H20.9102C21.1976 22.0599 21.4611 21.9401 21.7006 21.7006C21.9401 21.4611 22.0599 21.1976 22.0599 20.9102V3.08982C22.0599 2.8024 21.9401 2.53892 21.7006 2.2994C21.4611 2.05988 21.1976 1.94012 20.9102 1.94012H3.08982C2.8024 1.94012 2.53892 2.05988 2.2994 2.2994C2.05988 2.53892 1.94012 2.8024 1.94012 3.08982V20.9102C1.94012 21.1976 2.05988 21.4611 2.2994 21.7006C2.53892 21.9401 2.8024 22.0599 3.08982 22.0599Z" fill="#373737"/>
</g>
</g>
</svg>
