<svg width="24" height="24" viewBox="0 0 24 24" fill="none" xmlns="http://www.w3.org/2000/svg"><path d="M2.83483 6.99802L12.105 6.99965C12.4072 8.17621 13.3263 9.09485 14.5029 9.39753C16.2856 9.85563 18.1021 8.78199 18.5606 6.99965L21.1652 6.99802L21.3149 6.9846C21.712 6.91259 22.0004 6.56678 22 6.1632C21.9988 5.70307 21.6253 5.3304 21.1652 5.33163H18.5606C18.1806 3.8597 16.8527 2.83122 15.3328 2.83203C13.8125 2.83122 12.4849 3.8597 12.105 5.33162H2.83483L2.6847 5.34464C2.28763 5.41665 1.99919 5.76287 2 6.16604C2.00082 6.62617 2.3747 6.99884 2.83483 6.99802ZM15.3328 4.49843C16.2531 4.49843 16.9992 5.24416 16.9992 6.16482C16.9992 7.08508 16.2531 7.83122 15.3328 7.83122C14.4125 7.83122 13.6664 7.08508 13.6664 6.16482C13.6664 5.24416 14.4125 4.49843 15.3328 4.49843Z" fill="#84aeff"/><path d="M21.1652 16.9964H11.895C11.5151 15.5245 10.1871 14.496 8.66721 14.4968C7.14687 14.496 5.81937 15.5245 5.43938 16.9964H2.83483L2.6847 17.0094C2.28763 17.0814 1.99919 17.4277 2 17.8308C2.00082 18.291 2.3747 18.6636 2.83483 18.6628L5.43938 18.6644C5.74166 19.841 6.6607 20.7596 7.83727 21.0623C9.62002 21.5204 11.4365 20.4468 11.895 18.6644L21.1652 18.6628L21.3149 18.6494C21.712 18.5774 22.0004 18.2316 22 17.828C21.9988 17.3679 21.6253 16.9952 21.1652 16.9964ZM8.66721 19.496C7.74695 19.496 7.00082 18.7499 7.00082 17.8296C7.00082 16.909 7.74695 16.1632 8.66721 16.1632C9.58747 16.1632 10.3336 16.909 10.3336 17.8296C10.3336 18.7499 9.58747 19.496 8.66721 19.496Z" fill="#d4d4d4"/></svg>