<svg width="24" height="24" viewBox="0 0 24 24" fill="none" xmlns="http://www.w3.org/2000/svg"><path d="M18.75 7.125C18.75 6.08947 17.9105 5.25 16.875 5.25H7.125C6.08947 5.25 5.25 6.08947 5.25 7.125V18.375C5.25 19.4105 6.08947 20.25 7.125 20.25H16.875C17.9105 20.25 18.75 19.4105 18.75 18.375V7.125ZM20.25 18.375C20.25 20.239 18.739 21.75 16.875 21.75H7.125C5.26104 21.75 3.75 20.239 3.75 18.375V7.125C3.75 5.26104 5.26104 3.75 7.125 3.75H16.875C18.739 3.75 20.25 5.26104 20.25 7.125V18.375Z" fill="#d4d4d4"/><rect x="9" y="1.875" width="6" height="3.75" rx="1.35" fill="#d4d4d4"/><rect x="8.625" y="11.775" width="6.75" height="1.5" rx="0.75" fill="#84aeff"/><rect x="8.625" y="15.525" width="6.75" height="1.5" rx="0.75" fill="#84aeff"/></svg>