<svg preserveAspectRatio="none" width="100%" height="100%" overflow="visible" style="display: block;" viewBox="0 0 24 24" fill="none" xmlns="http://www.w3.org/2000/svg">
<g id="Group 94">
<path id="Vector" d="M3.08932 24C2.21159 24 1.47727 23.7045 0.886364 23.1136C0.295455 22.5227 0 21.7884 0 20.9107V17.2841C0 16.9764 0.110568 16.7119 0.331704 16.4908C0.552841 16.2697 0.817273 16.1591 1.125 16.1591C1.43273 16.1591 1.69716 16.2697 1.9183 16.4908C2.13943 16.7119 2.25 16.9764 2.25 17.2841V20.9107C2.25 21.1207 2.33739 21.3131 2.51216 21.4878C2.68693 21.6626 2.87932 21.75 3.08932 21.75H6.71591C7.02364 21.75 7.28807 21.8606 7.5092 22.0817C7.73034 22.3028 7.84091 22.5673 7.84091 22.875C7.84091 23.1827 7.73034 23.4472 7.5092 23.6683C7.28807 23.8894 7.02364 24 6.71591 24H3.08932ZM20.9107 24H17.2841C16.9764 24 16.7119 23.8894 16.4908 23.6683C16.2697 23.4472 16.1591 23.1827 16.1591 22.875C16.1591 22.5673 16.2697 22.3028 16.4908 22.0817C16.7119 21.8606 16.9764 21.75 17.2841 21.75H20.9107C21.1207 21.75 21.3131 21.6626 21.4878 21.4878C21.6626 21.3131 21.75 21.1207 21.75 20.9107V17.2841C21.75 16.9764 21.8606 16.7119 22.0817 16.4908C22.3028 16.2697 22.5673 16.1591 22.875 16.1591C23.1827 16.1591 23.4472 16.2697 23.6683 16.4908C23.8894 16.7119 24 16.9764 24 17.2841V20.9107C24 21.7884 23.7045 22.5227 23.1136 23.1136C22.5227 23.7045 21.7884 24 20.9107 24ZM0 6.71591V3.08932C0 2.21159 0.295455 1.47727 0.886364 0.886364C1.47727 0.295455 2.21159 0 3.08932 0H6.71591C7.02364 0 7.28807 0.110568 7.5092 0.331704C7.73034 0.55284 7.84091 0.817273 7.84091 1.125C7.84091 1.43273 7.73034 1.69716 7.5092 1.9183C7.28807 2.13943 7.02364 2.25 6.71591 2.25H3.08932C2.87932 2.25 2.68693 2.33739 2.51216 2.51216C2.33739 2.68693 2.25 2.87932 2.25 3.08932V6.71591C2.25 7.02364 2.13943 7.28807 1.9183 7.50921C1.69716 7.73034 1.43273 7.84091 1.125 7.84091C0.817273 7.84091 0.552841 7.73034 0.331704 7.50921C0.110568 7.28807 0 7.02364 0 6.71591ZM21.75 6.71591V3.08932C21.75 2.87932 21.6626 2.68693 21.4878 2.51216C21.3131 2.33739 21.1207 2.25 20.9107 2.25H17.2841C16.9764 2.25 16.7119 2.13943 16.4908 1.9183C16.2697 1.69716 16.1591 1.43273 16.1591 1.125C16.1591 0.817273 16.2697 0.55284 16.4908 0.331704C16.7119 0.110568 16.9764 0 17.2841 0H20.9107C21.7884 0 22.5227 0.295455 23.1136 0.886364C23.7045 1.47727 24 2.21159 24 3.08932V6.71591C24 7.02364 23.8894 7.28807 23.6683 7.50921C23.4472 7.73034 23.1827 7.84091 22.875 7.84091C22.5673 7.84091 22.3028 7.73034 22.0817 7.50921C21.8606 7.28807 21.75 7.02364 21.75 6.71591Z" fill="#373737"/>
<g id="Vector_2">
<path d="M12.9954 9.05518H10.3071L9.06406 10.9794L7.88415 9.05518H5.10572L7.72593 12.9148L5 17H7.67839L9.05909 14.8125L10.4277 17H13.2161L10.4228 12.8291L12.9954 9.05518Z" fill="#0A5DFF"/>
<path d="M18.8446 6.26515C18.3089 6.08938 17.7541 6 17.1964 6C16.6395 6 16.1684 6.10725 15.7966 6.31878C15.4156 6.53589 15.1488 6.8245 15.0041 7.17642C14.8643 7.51567 14.7962 8.00613 14.7962 8.67608V9.05518H13.7376V11.0107H14.7962V17H17.0659V11.0107H18.4906V9.05518H17.0659V8.71183C17.0659 8.27463 17.1475 8.11748 17.1971 8.06199C17.2802 7.96777 17.4355 7.91973 17.6569 7.91973C17.9208 7.91973 18.2018 7.9566 18.4906 8.02884L18.6743 8.07502L19 6.31617L18.8446 6.26515Z" fill="#0A5DFF"/>
</g>
</g>
</svg>
