<svg preserveAspectRatio="none" width="100%" height="100%" overflow="visible" style="display: block;" viewBox="0 0 23 24" fill="none" xmlns="http://www.w3.org/2000/svg">
<g id="Vector">
<path d="M9.51984 24C9.25792 24 9.01831 23.9098 8.80099 23.7295C8.58368 23.5489 8.44907 23.3236 8.39718 23.0534L8.04627 20.2537C7.77969 20.1566 7.45838 20.0079 7.08234 19.8076C6.7063 19.6073 6.39614 19.3928 6.15186 19.164L3.54834 20.2608C3.29109 20.375 3.02988 20.3875 2.76473 20.2983C2.49957 20.209 2.30547 20.0398 2.18242 19.7908L0.140222 16.1176C0.0171713 15.8686 -0.0248926 15.6188 0.0140296 15.3682C0.0529517 15.1177 0.183909 14.9156 0.406899 14.7621L2.59171 13.0827C2.5761 12.9042 2.55663 12.7176 2.53332 12.5227C2.50981 12.3277 2.49805 12.141 2.49805 11.9624C2.49805 11.81 2.50981 11.6452 2.53332 11.4681C2.55663 11.2908 2.5761 11.0868 2.59171 10.8562L0.437307 9.23786C0.214316 9.08438 0.0872112 8.87338 0.0559928 8.60489C0.0249766 8.33639 0.0709945 8.07756 0.194044 7.8284L2.21282 4.31695C2.33587 4.08366 2.52491 3.92356 2.77993 3.83664C3.03495 3.74972 3.29109 3.75328 3.54834 3.84733L6.00681 4.85954C6.30927 4.6169 6.64649 4.39379 7.01848 4.19023C7.39027 3.98667 7.7352 3.81832 8.05326 3.68519L8.39718 0.946565C8.42677 0.667889 8.55581 0.440408 8.78427 0.264123C9.01274 0.0880396 9.25792 0 9.51984 0H13.5106C13.7725 0 14.0177 0.0880396 14.2461 0.264123C14.4746 0.440408 14.6036 0.667889 14.6332 0.946565L14.9537 3.73924C15.3186 3.90372 15.6597 4.07206 15.9769 4.24427C16.2942 4.41649 16.612 4.63176 16.9302 4.89008L19.4751 3.84733C19.7266 3.73293 19.9822 3.72428 20.2417 3.82137C20.5009 3.91848 20.7007 4.08366 20.841 4.31695L22.8598 7.85191C22.9828 8.10086 23.0249 8.35572 22.986 8.61649C22.947 8.87725 22.8161 9.08438 22.5931 9.23786L20.2842 10.9878C20.3311 11.1787 20.3584 11.3643 20.3663 11.5444C20.374 11.7244 20.3779 11.8864 20.3779 12.0305C20.3779 12.159 20.3701 12.3132 20.3545 12.4931C20.3389 12.6733 20.3233 12.8823 20.3076 13.1203L22.4855 14.7621C22.7085 14.9156 22.8484 15.1227 22.9054 15.3835C22.9622 15.6443 22.929 15.8991 22.806 16.1481L20.8106 19.7673C20.6875 20.0165 20.4861 20.1856 20.2064 20.2748C19.9268 20.364 19.655 20.3515 19.3908 20.2373L16.7782 19.1405C16.4802 19.3784 16.185 19.5863 15.8927 19.764C15.6004 19.9417 15.2975 20.0869 14.9841 20.1997L14.6332 23.0534C14.5813 23.3236 14.4467 23.5489 14.2294 23.7295C14.0121 23.9098 13.7725 24 13.5106 24H9.51984ZM10.2685 21.9847H12.6731L13.1268 18.647C13.7599 18.4842 14.336 18.2548 14.8552 17.9588C15.3742 17.6626 15.8997 17.2586 16.4319 16.7469L19.4048 18.0153L20.6446 15.9389L18.0435 13.9307C18.1448 13.583 18.217 13.2507 18.26 12.9337C18.3027 12.6166 18.3241 12.2979 18.3241 11.9777C18.3241 11.6418 18.3078 11.3357 18.2752 11.0592C18.2423 10.783 18.1752 10.4484 18.0739 10.0553L20.6914 8.06107L19.5125 5.98473L16.4388 7.22962C16.0709 6.80377 15.568 6.4054 14.93 6.03451C14.2921 5.66362 13.6832 5.41608 13.1034 5.29191L12.7619 2.01527H10.2451L9.927 5.23786C9.23309 5.38972 8.60892 5.62697 8.05448 5.94962C7.50025 6.27206 6.96892 6.69873 6.4605 7.22962L3.51793 5.98473L2.2782 8.06107L4.82547 10.0388C4.72411 10.3942 4.65316 10.7324 4.61261 11.0534C4.57207 11.3745 4.5518 11.6817 4.5518 11.9753C4.5518 12.236 4.57207 12.5293 4.61261 12.855C4.65316 13.1807 4.7163 13.5494 4.80206 13.9612L2.2782 15.9389L3.51793 18.0153L6.46749 16.7634C7.02578 17.2879 7.57698 17.7014 8.12107 18.0037C8.66538 18.3058 9.25955 18.5382 9.90359 18.7011L10.2685 21.9847Z" fill="#0A5DFF"/>
<path d="M11.5001 9.39028C12.9331 9.39028 14.099 10.561 14.099 12C14.099 13.439 12.9331 14.6097 11.5001 14.6097C10.067 14.6097 8.90102 13.439 8.90102 12C8.90102 10.561 10.067 9.39028 11.5001 9.39028ZM11.5001 7.61912C9.0905 7.61912 7.13726 9.58048 7.13726 12C7.13726 14.4195 9.0905 16.3809 11.5001 16.3809C13.9095 16.3809 15.8627 14.4195 15.8627 12C15.8627 9.58048 13.9095 7.61912 11.5001 7.61912Z" fill="#0A5DFF"/>
</g>
</svg>
