<svg width="24" height="24" viewBox="0 0 24 24" fill="none" xmlns="http://www.w3.org/2000/svg"><path d="M11.9992 8.6663C10.1577 8.6663 8.66477 10.1592 8.66477 12.0007C8.66477 13.8423 10.1577 15.3352 11.9992 15.3352C13.8408 15.3352 15.3337 13.8423 15.3337 12.0007C15.3337 10.1592 13.8408 8.6663 11.9992 8.6663ZM10.332 12.0007C10.332 11.08 11.0784 10.3335 11.9992 10.3335C12.92 10.3335 13.6664 11.08 13.6664 12.0007C13.6664 12.9215 12.92 13.668 11.9992 13.668C11.0784 13.668 10.332 12.9215 10.332 12.0007ZM16.364 5.9954C15.7242 6.11108 15.1108 5.68902 14.9902 5.05009L14.5567 2.6893C14.515 2.4533 14.3331 2.26684 14.0982 2.21915C12.7136 1.92695 11.2832 1.92695 9.89852 2.21915C9.66364 2.26684 9.4818 2.4533 9.44003 2.6893L9.00822 5.05009C8.88772 5.69264 8.26915 6.11586 7.6266 5.99536C7.56579 5.98396 7.50598 5.96781 7.4477 5.94706L5.18195 5.14012C4.95703 5.0619 4.70714 5.12404 4.54507 5.29851C3.59586 6.34408 2.8788 7.57878 2.44103 8.92138C2.36626 9.1485 2.43762 9.39825 2.62109 9.55159L4.45837 11.1038C4.50839 11.1449 4.5534 11.1899 4.59342 11.2388C5.01441 11.7317 4.95612 12.4726 4.4632 12.8936C4.4616 12.895 4.45999 12.8963 4.45837 12.8977L2.62109 14.4499C2.43762 14.6032 2.36626 14.853 2.44103 15.0801C2.87929 16.4228 3.59693 17.6576 4.54673 18.703C4.70881 18.8774 4.9587 18.9396 5.18361 18.8614L7.45104 18.0544C8.06445 17.8337 8.74064 18.1521 8.96135 18.7655C8.98312 18.826 8.99991 18.8882 9.01156 18.9514L9.4417 21.3122C9.48505 21.5456 9.66677 21.7323 9.90019 21.7807C11.2854 22.0731 12.7164 22.0731 14.1016 21.7807C14.3353 21.7326 14.5163 21.5471 14.5584 21.3122L14.9919 18.9514C15.1124 18.3088 15.731 17.8856 16.3735 18.0061C16.4343 18.0175 16.4941 18.0337 16.5524 18.0544L18.8182 18.8614C19.0432 18.9414 19.295 18.878 19.455 18.703C20.4042 17.6574 21.1213 16.4227 21.5591 15.0801C21.6338 14.853 21.5625 14.6032 21.379 14.4499L19.5417 12.8977C19.0463 12.481 18.9825 11.7417 19.3992 11.2463C19.4425 11.1948 19.4902 11.1471 19.5417 11.1038L21.379 9.55159C21.5625 9.39825 21.6338 9.1485 21.5591 8.92138C21.1203 7.57849 20.4021 6.34377 19.4517 5.29851C19.2896 5.12404 19.0397 5.0619 18.8148 5.14012L16.5474 5.94706C16.4867 5.96726 16.4249 5.98396 16.3623 5.99707M5.32533 6.96406L6.88751 7.51925C8.37085 8.04733 10.0014 7.27293 10.5295 5.78959C10.5803 5.64703 10.6196 5.50066 10.6471 5.35186L10.9422 3.73465C11.6424 3.64536 12.3511 3.64536 13.0512 3.73465L13.348 5.35186C13.6319 6.89872 15.116 7.92259 16.6628 7.63873C16.8141 7.61097 16.9628 7.57102 17.1076 7.51925L18.6681 6.96073C19.0949 7.5198 19.445 8.12223 19.7185 8.768L18.4614 9.83002C17.2625 10.8422 17.1112 12.6346 18.1234 13.8335C18.2264 13.9554 18.3394 14.0685 18.4614 14.1715L19.7201 15.2335C19.4472 15.8776 19.0943 16.4848 18.6698 17.0408L17.1076 16.4839C15.6242 15.9558 13.9937 16.7302 13.4656 18.2136C13.4148 18.3561 13.3755 18.5025 13.348 18.6513L13.0512 20.2685C12.3511 20.3578 11.6424 20.3578 10.9422 20.2685L10.6471 18.6513C10.3632 17.1044 8.87914 16.0806 7.33227 16.3644C7.18104 16.3922 7.0323 16.4321 6.88751 16.4839L5.33033 17.0408C4.90577 16.4848 4.55288 15.8776 4.27998 15.2335L5.53706 14.1698C6.73546 13.1571 6.88596 11.3646 5.87322 10.1662C5.77076 10.0449 5.65831 9.93248 5.53706 9.83002L4.27831 8.768C4.55396 8.12223 4.90408 7.5198 5.32866 6.96073" fill="#0A5DFF"/></svg>