<svg width="24" height="24" viewBox="0 0 24 24" fill="none" xmlns="http://www.w3.org/2000/svg">
<path d="M20.2872 2.09961H3.71246C2.8233 2.09961 2.09967 2.82324 2.09967 3.7124V20.2875C2.09967 21.1766 2.8233 21.9003 3.71246 21.9003H20.2872C21.1767 21.9003 21.9003 21.1766 21.9003 20.2875V3.7124C21.9003 2.82324 21.1767 2.09961 20.2872 2.09961ZM3.2536 3.25354H8.31537V8.31531H3.2536V3.25354ZM8.31537 20.7463H3.2536V15.6842H8.31537L8.31537 20.7463ZM20.7464 20.7463H15.6843V15.6842H20.7464V20.7463ZM20.7464 14.531H15.6843V12.3597L14.5307 13.7495V14.531H13.8821L12.9245 15.6842H14.5307V20.7463H9.46893V17.4647H9.10748L9.2298 16.6085L9.52643 14.531H9.46893V14.3138H8.31537V14.531H3.2536V9.46887H8.31537V11.8877L9.46893 10.2225V9.46887H9.99078L10.7899 8.31531H9.46893V3.25354H14.5307V8.31531H14.1656L14.0217 9.46887H14.5307V10.1361H15.6843V9.46887H20.7464V14.531ZM20.7464 8.31531H15.6843V3.25354H20.7464V8.31531Z" fill="black"/>
<path d="M14.5307 10.8861H14.3058H14.081H13.0886L13.2094 9.91895L13.2376 9.69409L13.2658 9.46887L13.4097 8.31531L13.4379 8.09045L13.4661 7.8656L13.5386 7.28516H12.4158L12.1016 7.73889L12.0141 7.8656L11.8581 8.09045L11.7021 8.31531L10.9034 9.46887L10.7474 9.69409L10.5917 9.91895L9.91901 10.8901L9.69379 11.215L9.46893 11.5398L8.31537 13.2053L8.09052 13.5302L8.06708 13.5638H8.09052H8.31537H9.46893H9.69379H9.91901H10.4222L10.3482 14.0809L10.3163 14.3058L10.2841 14.531L10.1193 15.6842L10.1072 15.7695L10.0871 15.9094L10.0549 16.1343L9.97211 16.7147H11.0945L11.5761 16.1343L11.7629 15.9094L11.9496 15.6842L12.9073 14.531L13.0941 14.3058L13.2808 14.0809L14.081 13.1171L14.3058 12.8461L14.5307 12.5751L15.6843 11.1857L15.9095 10.9143L15.9329 10.8861H15.9095H15.6843H14.5307Z" fill="#0A5DFF"/>
</svg>
