<svg width="24" height="24" viewBox="0 0 24 24" fill="none" xmlns="http://www.w3.org/2000/svg"><path d="M18.5385 2H5.46154C3.54973 2 2 3.54973 2 5.46154V18.5385C2 20.4499 3.54973 22 5.46154 22H18.5385C20.4503 22 22 20.4499 22 18.5385V5.46154C22 3.54973 20.4503 2 18.5385 2ZM8.15385 20.4615H5.46154C4.39934 20.4615 3.53846 19.6003 3.53846 18.5385V15.8462H8.15385V20.4615ZM14.3077 20.4615H9.69231V15.8462H14.3077V20.4615ZM20.4615 18.5385C20.4615 19.6003 19.6007 20.4615 18.5385 20.4615H15.8462V15.8462H20.4615V18.5385ZM20.4615 14.3685H15.8187V14.3652H3.53846V5.46154C3.53846 4.39934 4.39934 3.53846 5.46154 3.53846H18.5385C19.6007 3.53846 20.4615 4.39934 20.4615 5.46154V14.3685Z" fill="#d4d4d4"/><path d="M11.0778 5.10962H15.1881C15.3235 5.10964 15.4332 5.21943 15.4332 5.35485C15.4332 5.39981 15.4208 5.4439 15.3975 5.4823L13.8381 8.05185H15.0596C15.2627 8.05198 15.4273 8.21675 15.4271 8.41986C15.4271 8.51967 15.3864 8.61517 15.3146 8.68443L11.0258 12.8168C10.6541 13.1748 10.0524 12.7898 10.2221 12.3019L11.0194 10.0133H8.93436C8.73124 10.0133 8.56658 9.84867 8.56659 9.64555C8.56659 9.5889 8.57968 9.53302 8.60483 9.48226L10.6384 5.38227C10.7212 5.21512 10.8912 5.10944 11.0778 5.10962Z" fill="#84aeff"/></svg>