<svg width="24" height="24" viewBox="0 0 24 24" fill="none" xmlns="http://www.w3.org/2000/svg"><path d="M17.6496 16.047C17.3654 16.0601 17.1032 16.1833 16.9111 16.3933C16.2737 17.1049 15.5075 17.6595 14.6336 18.0412C11.3035 19.4937 7.41187 17.9661 5.95889 14.6357L5.83125 14.3437H8.1716C8.76046 14.3437 9.23921 13.8645 9.23921 13.2761C9.23921 12.6876 8.76046 12.2089 8.1716 12.2089H3.0668C2.47875 12.2089 2 12.6876 2 13.2761V18.3809C2 18.9693 2.47875 19.4481 3.0668 19.4481C3.65566 19.4481 4.13441 18.9693 4.13441 18.3809V15.8521L4.52222 16.4964C6.09061 19.1043 8.9562 20.7241 12 20.7241C14.4798 20.7237 16.8495 19.6638 18.5019 17.8165C18.882 17.3838 18.8449 16.7138 18.4179 16.3248C18.2075 16.1323 17.933 16.0336 17.6496 16.047Z" fill="#d4d4d4"/><path d="M20.9332 4.55212C20.3443 4.55212 19.8656 5.03087 19.8656 5.61933V8.14726L19.4782 7.50294C17.909 4.89548 15.045 3.27612 12.0033 3.27612H12C9.5206 3.27612 7.15048 4.33599 5.49768 6.18372C5.10008 6.61965 5.13107 7.29578 5.56578 7.69297C6.00049 8.08935 6.67703 8.05836 7.07381 7.62365C9.50918 4.89875 13.6834 4.66426 16.3924 7.08495C17.104 7.72152 17.6586 8.48818 18.0411 9.36412L18.1687 9.65652H15.8284C15.2395 9.65652 14.7608 10.1357 14.7608 10.7241C14.7608 11.3126 15.2395 11.7913 15.8284 11.7913H20.9332C21.5212 11.7913 22 11.3126 22 10.7241V5.61932C22 5.03087 21.5212 4.55212 20.9332 4.55212Z" fill="#84aeff"/></svg>