<svg preserveAspectRatio="none" width="100%" height="100%" overflow="visible" style="display: block;" viewBox="0 0 24.3261 19.0001" fill="none" xmlns="http://www.w3.org/2000/svg">
<g id="Group 90">
<g id="Vector">
<path d="M12.0955 17.4522C12.4203 17.4522 12.7547 17.4284 13.0987 17.3806C13.4426 17.3328 13.777 17.2612 14.1019 17.1656C14.3312 17.1274 14.5461 17.1513 14.7468 17.2373C14.9474 17.3233 15.0955 17.4618 15.191 17.6529C15.2675 17.8248 15.277 18.0064 15.2197 18.1975C15.1624 18.3885 15.0382 18.5127 14.8471 18.5701C14.4267 18.7038 13.9824 18.8089 13.5143 18.8854C13.0461 18.9618 12.5732 19 12.0955 19C9.7452 19 7.70539 18.2118 5.9761 16.6354C4.2468 15.0589 3.27706 13.1147 3.06687 10.8026V8.85353L1.37579 10.5446C1.20382 10.7166 1.02707 10.8026 0.845539 10.8026C0.664011 10.8026 0.477705 10.707 0.286623 10.516C0.0955407 10.3249 -7.93485e-09 10.1386 0 9.95703C7.93485e-09 9.77551 0.0955407 9.5892 0.286623 9.39812L2.98088 6.70386C3.22929 6.45545 3.51591 6.33125 3.84075 6.33125C4.16559 6.33125 4.45222 6.45545 4.70062 6.70386L7.45221 9.45544C7.60507 9.60831 7.68629 9.77551 7.69584 9.95703C7.70539 10.1386 7.62418 10.3249 7.45221 10.516C7.28023 10.707 7.09871 10.8026 6.90762 10.8026C6.71654 10.8026 6.52546 10.707 6.33438 10.516L4.6433 8.82487V10.7739C4.79616 12.6083 5.57482 14.18 6.97928 15.4889C8.38373 16.7978 10.0891 17.4522 12.0955 17.4522Z" fill="#373737"/>
<path d="M11.1844 1.63375C11.5379 1.57643 11.8866 1.54777 12.2306 1.54777C14.237 1.54777 15.9424 2.20222 17.3468 3.51114C18.7513 4.82005 19.5299 6.3917 19.6828 8.22609V10.1751L17.9917 8.48405C17.8006 8.29297 17.6096 8.19743 17.4185 8.19743C17.2274 8.19743 17.0459 8.29297 16.8739 8.48405C16.7019 8.67513 16.6207 8.86144 16.6303 9.04297C16.6398 9.2245 16.721 9.39169 16.8739 9.54456L19.6255 12.2961C19.8739 12.5446 20.1605 12.6688 20.4853 12.6688C20.8102 12.6688 21.0968 12.5446 21.3452 12.2961L24.0395 9.60188C24.2306 9.4108 24.3261 9.2245 24.3261 9.04297C24.3261 8.86144 24.2306 8.67514 24.0395 8.48405C23.8484 8.29297 23.6621 8.19743 23.4806 8.19743C23.299 8.19743 23.1223 8.28342 22.9503 8.45539L21.2592 10.1465V8.19743C21.049 5.88533 20.0793 3.94107 18.35 2.36464C16.6207 0.788214 14.5809 1.02735e-07 12.2306 0C11.7529 -2.08812e-08 11.2704 0.0382164 10.7831 0.114649C10.2959 0.191082 9.82296 0.305731 9.36436 0.458597C9.17328 0.53503 9.04908 0.678342 8.99175 0.888532C8.93443 1.09872 8.95354 1.28981 9.04908 1.46178C9.14462 1.65286 9.29748 1.77706 9.50767 1.83439C9.71786 1.89171 9.92805 1.90127 10.1382 1.86305C10.4822 1.76751 10.8309 1.69108 11.1844 1.63375Z" fill="#0A5DFF"/>
</g>
</g>
</svg>
