<svg width="24" height="24" viewBox="0 0 24 24" fill="none" xmlns="http://www.w3.org/2000/svg">
<path d="M18.9191 16.3389C13.1523 21.1623 9.47528 16.9622 8.73271 15.9745C8.65338 15.869 8.67642 15.7205 8.78457 15.6448L10.6482 14.3403C10.7981 14.2354 10.7727 14.0063 10.6036 13.9366L2.5697 10.6274C2.41732 10.5647 2.25 10.6767 2.25 10.8415V19.3901C2.25 19.5748 2.45296 19.6871 2.60684 19.5849C3.01127 19.3162 3.68105 18.8677 4.19566 18.5048C4.2959 18.4341 4.42636 18.4588 4.50758 18.5507C6.17921 20.4421 15.8393 26.0942 21.4805 15.8587" stroke="black" stroke-width="1.4" stroke-miterlimit="10" stroke-linecap="round"/>
<path d="M5.08092 7.66104C10.8477 2.83764 14.5247 7.03778 15.2673 8.02545C15.3466 8.13097 15.3236 8.27943 15.2154 8.35513L13.3518 9.65965C13.2019 9.76457 13.2272 9.99371 13.3964 10.0634L21.4303 13.3725C21.5827 13.4353 21.75 13.3233 21.75 13.1585V4.60986C21.75 4.42512 21.547 4.3129 21.3931 4.41511C20.9887 4.68373 20.3189 5.13227 19.8043 5.49514C19.7041 5.56582 19.5736 5.5412 19.4924 5.44929C17.8208 3.55784 8.16072 -2.09426 2.51953 8.14131" stroke="#0A5DFF" stroke-width="1.4" stroke-miterlimit="10" stroke-linecap="round"/>
</svg>
