<svg width="24" height="24" viewBox="0 0 24 24" fill="none" xmlns="http://www.w3.org/2000/svg"><path d="M14.6622 14.3807C14.3193 14.7637 13.8984 15.0685 13.4272 15.2743C11.6191 16.0628 9.51429 15.2363 8.72572 13.4286H9.85713C10.2516 13.4286 10.5714 13.1087 10.5714 12.7143C10.5714 12.3195 10.2516 12 9.85713 12H6.99999C6.60553 12 6.28571 12.3195 6.28571 12.7143V15.5714C6.28571 15.9659 6.60553 16.2857 6.99999 16.2857C7.39445 16.2857 7.71428 15.9659 7.71428 15.5714V14.5771C8.61864 16.0806 10.245 17 12 17C13.4226 16.9997 14.778 16.3938 15.7263 15.3336C15.9833 15.0409 15.9589 14.5966 15.6712 14.3343C15.3796 14.0682 14.9279 14.0891 14.6622 14.3807Z" fill="#424242"/><path d="M12 2C6.47719 2 2 6.47684 2 12C2 17.5228 6.47719 22 12 22C17.5228 22 22 17.5228 22 12C22 6.47684 17.5228 2 12 2ZM12 20.5714C7.26646 20.5714 3.42857 16.7335 3.42857 12C3.42857 7.26611 7.26646 3.42857 12 3.42857C16.7335 3.42857 20.5714 7.26611 20.5714 12C20.5714 16.7335 16.7335 20.5714 12 20.5714Z" fill="#424242"/><path d="M17 7.71429C16.6056 7.71429 16.2857 8.03376 16.2857 8.42857V9.42257C15.381 7.91902 13.7547 6.9993 12 7C10.5774 7 9.22205 7.60582 8.27338 8.66643C8.00762 8.95766 8.0282 9.40932 8.31977 9.67543C8.61134 9.9412 9.063 9.92062 9.32912 9.62905C9.33191 9.62556 9.3347 9.62242 9.33784 9.61928C10.6524 8.14851 12.91 8.0219 14.3807 9.33608C14.764 9.67892 15.0685 10.0999 15.2743 10.5714H14.1429C13.7484 10.5714 13.4286 10.8909 13.4286 11.2857C13.4286 11.6802 13.7484 12 14.1429 12H17C17.3945 12 17.7143 11.6802 17.7143 11.2857V8.42857C17.7143 8.03376 17.3945 7.71429 17 7.71429Z" fill="#0A5DFF"/></svg>