<svg width="24" height="24" viewBox="0 0 24 24" fill="none" xmlns="http://www.w3.org/2000/svg"><path d="M5.52697 4.85458H17.436L11.4696 12.3573L5.52697 4.85458ZM2.252 4.39013C4.65762 7.47456 9.09967 13.1909 9.09967 13.1909V20.3363C9.09967 20.9913 9.63558 21.5272 10.2906 21.5272H12.6724C13.3274 21.5272 13.8633 20.9913 13.8633 20.3363V13.1909C13.8633 13.1909 18.2934 7.47456 20.699 4.39013C21.3064 3.60413 20.7467 2.47278 19.7582 2.47278H3.19281C2.20436 2.47278 1.64464 3.60413 2.252 4.39013Z" fill="#d4d4d4"/><path d="M20.4416 17.8049L21.606 16.6405C22.1316 16.1149 22.1316 15.263 21.606 14.7373C21.0803 14.2125 20.2291 14.2117 19.7028 14.7373L18.5384 15.9017L17.3733 14.7373C16.8477 14.2117 15.9965 14.2117 15.4709 14.7373C14.9453 15.263 14.9453 16.1149 15.4709 16.6405L16.6353 17.8049L15.4709 18.9692C14.9453 19.4948 14.9453 20.3468 15.4709 20.8724C15.7337 21.1352 16.0776 21.2666 16.4221 21.2666C16.766 21.2666 17.1105 21.1352 17.3733 20.8724L18.5384 19.708L19.7028 20.8724C19.9656 21.1352 20.3102 21.2666 20.654 21.2666C20.9986 21.2666 21.3431 21.1352 21.606 20.8724C22.1316 20.3468 22.1316 19.4948 21.606 18.9692L20.4416 17.8049Z" fill="#F67D02"/></svg>