<svg width="24" height="24" viewBox="0 0 24 24" fill="none" xmlns="http://www.w3.org/2000/svg"><path d="M18.7334 15.267V7.29638C18.7295 6.37128 18.3688 5.50138 17.7173 4.84682L15.8866 3.01528C15.2413 2.37004 14.3481 2 13.4362 2H5.4664C3.55479 2 2 3.55479 2 5.46562V15.267C2 17.1778 3.55479 18.7326 5.4664 18.7326H15.267C17.1778 18.7326 18.7334 17.1778 18.7334 15.267ZM4.03211 5.46562C4.03211 4.67501 4.67579 4.03133 5.4664 4.03133H6.90069V5.46562C6.90069 6.47623 7.72317 7.29794 8.733 7.29794H12.0004C13.011 7.29794 13.8327 6.47623 13.8327 5.46562V4.10907C14.0651 4.17126 14.2797 4.28942 14.45 4.4519L16.2815 6.28266C16.5481 6.5493 16.7013 6.91934 16.7013 7.29716V15.267C16.7013 15.6503 16.552 16.0102 16.2815 16.2807C16.0615 16.5007 15.7723 16.6438 15.466 16.6873V11.9996C15.466 10.989 14.6435 10.1673 13.6337 10.1673H7.0997C6.08909 10.1673 5.26738 10.989 5.26738 11.9996V16.6873C4.57006 16.5901 4.03211 15.99 4.03211 15.267V5.46562ZM13.4347 12.1986V16.7013H7.29871V12.1986H13.4347ZM8.93202 5.26661V4.03133H11.8014V5.26661H8.93202Z" fill="#373737"/><path d="M21.7411 9.24606C21.5732 8.82005 21.3073 8.42902 20.9777 8.11806L19.9687 7.10901V15.2662C19.9593 17.8503 17.8503 19.9601 15.267 19.9679H5.56046L5.73537 20.2672C6.04088 20.7888 6.47778 21.2257 6.99863 21.5304C7.51949 21.8383 8.11186 22 8.71512 22H15.267C18.9798 22 22 18.9798 22 15.267V10.5622C22 10.1051 21.9129 9.66197 21.7411 9.24606Z" fill="#0A5DFF"/></svg>