<svg width="24" height="24" viewBox="0 0 24 24" fill="none" xmlns="http://www.w3.org/2000/svg"><path d="M13.39 6.16797H10.6105C10.0764 6.16797 9.64154 6.60285 9.64154 7.13691C9.64154 7.67164 10.0764 8.10652 10.6105 8.10652H13.39C13.924 8.10652 14.3589 7.67164 14.3589 7.13691C14.3589 6.60285 13.924 6.16797 13.39 6.16797Z" fill="#84aeff"/><path d="M13.39 11.7256H10.6105C10.0764 11.7256 9.64154 12.1605 9.64154 12.6945C9.64154 13.2293 10.0764 13.6635 10.6105 13.6635H13.39C13.924 13.6635 14.3589 13.2293 14.3589 12.6945C14.3589 12.1605 13.924 11.7256 13.39 11.7256Z" fill="#84aeff"/><path d="M21.2434 20.6907L19.1594 15.1323C19.018 14.7571 18.6535 14.5044 18.2521 14.5044H17.1371V4.3587C17.1371 3.05806 16.0797 2 14.7791 2H9.22138C7.92075 2 6.86336 3.05806 6.86336 4.3587V14.5044H5.74834C5.34696 14.5044 4.98243 14.7571 4.84104 15.133L2.75708 20.69C2.66595 20.9326 2.67399 21.1952 2.7812 21.4311C2.88842 21.667 3.08006 21.8472 3.32263 21.9377C3.43186 21.9792 3.54644 22 3.6637 22H20.3361C20.8708 22 21.3057 21.5651 21.3057 21.0311C21.3057 20.9138 21.2849 20.7999 21.2434 20.6907ZM15.1992 16.8625C15.1992 17.0943 15.0102 17.2833 14.7791 17.2833H9.22138C8.98954 17.2833 8.80124 17.0943 8.80124 16.8625V4.3587C8.80124 4.12685 8.98954 3.93788 9.22138 3.93788H14.7791C15.0102 3.93788 15.1992 4.12685 15.1992 4.3587V16.8625ZM9.22138 19.2212H14.7791C16.0797 19.2212 17.1371 18.1631 17.1371 16.8625V16.4423H17.5807L18.9369 20.0614H5.06351L6.41976 16.4423H6.86336V16.8625C6.86336 18.1631 7.92075 19.2212 9.22138 19.2212Z" fill="#d4d4d4"/><path d="M13.39 14.5044H10.6105C10.0764 14.5044 9.64154 14.9393 9.64154 15.4733C9.64154 16.0074 10.0764 16.4423 10.6105 16.4423H13.39C13.924 16.4423 14.3589 16.0074 14.3589 15.4733C14.3589 14.9393 13.924 14.5044 13.39 14.5044Z" fill="#84aeff"/></svg>