<svg width="24" height="24" viewBox="0 0 24 24" fill="none" xmlns="http://www.w3.org/2000/svg"><path d="M22 8.27477C21.9963 7.19276 21.5744 6.17519 20.8123 5.41014L18.5906 3.18767C17.8368 2.43311 16.7923 2 15.7252 2H6.05305C3.81859 2 2 3.81784 2 6.0523V17.9477C2 20.1822 3.81859 22 6.05305 22H17.9477C20.1822 22 22 20.1822 22 17.9477V8.27477ZM10.1054 4.15878H13.8954V5.96463H10.1054V4.15878ZM15.8766 19.842H8.12341V14.0707H15.8766V19.842ZM19.842 17.9477C19.842 18.4535 19.6441 18.9286 19.2875 19.2867C18.9982 19.5752 18.6161 19.7655 18.21 19.8232L18.0346 19.848V13.9823C18.0346 12.8411 17.107 11.912 15.965 11.912H8.03574C6.89378 11.912 5.96538 12.8411 5.96538 13.9823V19.848L5.79079 19.8232C4.86014 19.6936 4.15878 18.8873 4.15878 17.9477V6.0523C4.15878 5.0085 5.0085 4.15878 6.05305 4.15878H7.94732V6.0523C7.94732 7.19426 8.87647 8.12266 10.0177 8.12266H13.9823C15.1243 8.12266 16.0534 7.19426 16.0534 6.0523V4.20599L16.2467 4.25844C16.5555 4.34086 16.838 4.49747 17.062 4.71103L19.2875 6.93575C19.6397 7.28793 19.842 7.77648 19.842 8.27552L19.842 17.9477Z" fill="#373737"/></svg>