<svg width="24" height="24" viewBox="0 0 24 24" fill="none" xmlns="http://www.w3.org/2000/svg"><path d="M3.80584 14.3118L3.80444 14.3111C3.77701 14.2471 3.76295 14.1782 3.76295 14.1057V8.22128C3.76295 7.45056 4.22074 6.75579 4.93028 6.4513L11.0932 3.80864C11.2219 3.75379 11.3632 3.75238 11.4919 3.80372C11.6213 3.85575 11.7226 3.95491 11.7774 4.08289C11.8056 4.14618 11.8196 4.21791 11.8196 4.28893V4.87259L13.4082 4.13915L13.5769 4.06531L13.5551 3.92818C13.4595 3.32553 13.1346 2.79601 12.6403 2.43808C12.1466 2.08015 11.544 1.93599 10.9392 2.03162C10.75 2.06256 10.5679 2.11601 10.3984 2.18914L4.2341 4.8304C2.8769 5.41196 2 6.74243 2 8.21988V14.1057C2 15.3652 3.02528 16.3898 4.28473 16.3898C4.54421 16.3898 4.80018 16.3455 5.0456 16.259L5.16585 16.2168V14.2949L4.49077 14.586C4.22566 14.6993 3.91836 14.5762 3.80584 14.3118Z" fill="#d4d4d4"/><path d="M19.7153 7.61584C19.4059 7.61584 19.1035 7.67773 18.8166 7.80009L11.8027 10.8063C10.9617 11.1664 10.4174 11.9905 10.4174 12.9061V19.7132C10.4174 20.9726 11.442 21.9972 12.7014 21.9972C13.0165 21.9972 13.3217 21.9339 13.6107 21.8087L20.6245 18.7659C21.4599 18.4031 22 17.5803 22 16.6704V9.89987C22 8.64042 20.9754 7.61584 19.7153 7.61584ZM20.237 9.89987V16.6704C20.237 16.8778 20.114 17.0663 19.9234 17.1493L12.9089 20.1899C12.7809 20.2455 12.6396 20.2483 12.5102 20.197C12.3808 20.1463 12.2781 20.0479 12.2233 19.9192C12.1937 19.8538 12.1797 19.7842 12.1797 19.7118V12.9061C12.1797 12.6979 12.3041 12.5095 12.4961 12.4265L19.5106 9.42028C19.5774 9.39216 19.6464 9.37809 19.7153 9.37809C19.9178 9.37809 20.1105 9.49693 20.1949 9.69454C20.223 9.75923 20.237 9.82814 20.237 9.89987Z" fill="#d4d4d4"/><path d="M8.29939 17.3919C8.16999 17.3406 8.06873 17.2414 8.01388 17.1134C7.98575 17.0487 7.97169 16.9791 7.97169 16.9074V10.0996C7.97169 9.89215 8.09616 9.70299 8.28743 9.61931L15.302 6.61449C15.4306 6.55964 15.5727 6.55823 15.7014 6.61027C15.8308 6.66161 15.9313 6.76076 15.9869 6.88944C16.0143 6.95344 16.0284 7.02235 16.0284 7.09478V7.85987L17.7948 7.10252L17.7885 6.97735C17.7238 5.72001 16.6535 4.75098 15.3891 4.81286C15.1191 4.82763 14.8561 4.88881 14.6086 4.99429L7.59406 8.00122C6.75373 8.36126 6.20944 9.18472 6.20874 10.0996V16.9074C6.20874 18.1668 7.23332 19.1914 8.49347 19.1914C8.75225 19.1914 9.00822 19.1471 9.25434 19.0613L9.37459 19.0184V17.0972L8.6974 17.387C8.57012 17.4418 8.42807 17.4439 8.29939 17.3919Z" fill="#84aeff"/></svg>