<svg width="24" height="24" viewBox="0 0 24 24" fill="none" xmlns="http://www.w3.org/2000/svg"><path d="M18.6667 3.66752H5.33333V3.66589C3.49251 3.66589 2 5.15841 2 6.99923V17.0009C2 18.8421 3.49251 20.3342 5.33333 20.3342H18.6667C20.5075 20.3342 22 18.8421 22 17.0009V7.00085C22 5.16003 20.5075 3.66752 18.6667 3.66752ZM8.66992 18.6675H5.33333C4.41292 18.6675 3.66667 17.9213 3.66667 17.0009V6.99923C3.66667 6.07882 4.41292 5.33256 5.33333 5.33256H8.66992V18.6675ZM20.3333 17.0009C20.3333 17.9213 19.5871 18.6675 18.6667 18.6675H10.3366V5.33419H18.6667C19.5871 5.33419 20.3333 6.08044 20.3333 7.00085V17.0009Z" fill="#d4d4d4"/><path d="M17.8301 11.1676H14.845L15.9233 10.0909C16.2492 9.76538 16.2492 9.23682 15.9233 8.91089C15.5974 8.58537 15.0692 8.58537 14.7433 8.91089L12.2433 11.4109C12.2429 11.4117 12.2421 11.4121 12.2417 11.4125C11.9166 11.7384 11.9174 12.2662 12.2433 12.5909L14.7433 15.0909C15.0692 15.4168 15.5974 15.4168 15.9233 15.0909C16.2492 14.7654 16.2492 14.2368 15.9233 13.9109L14.845 12.8342H17.8301C18.2903 12.8342 18.6634 12.4611 18.6634 12.0009C18.6634 11.5407 18.2903 11.1676 17.8301 11.1676Z" fill="#84aeff"/></svg>