<svg preserveAspectRatio="none" width="100%" height="100%" overflow="visible" style="display: block;" viewBox="0 0 24 24" fill="none" xmlns="http://www.w3.org/2000/svg">
<g id="Vector">
<path d="M16.8508 24C15.9523 24 15.1968 23.703 14.5843 23.1089C13.9717 22.515 13.6654 21.7823 13.6654 20.9107V3.08932C13.6654 2.21773 13.9717 1.485 14.5843 0.891137C15.1968 0.297046 15.9523 0 16.8508 0H20.8147C21.7131 0 22.4686 0.297046 23.0812 0.891137C23.6937 1.485 24 2.21773 24 3.08932V20.9107C24 21.7823 23.6937 22.515 23.0812 23.1089C22.4686 23.703 21.7131 24 20.8147 24H16.8508ZM21.6797 3.08932C21.6797 2.87932 21.5896 2.68693 21.4094 2.51216C21.2292 2.33739 21.031 2.25 20.8147 2.25H16.8508C16.6345 2.25 16.4362 2.33739 16.256 2.51216C16.0756 2.68693 15.9854 2.87932 15.9854 3.08932V20.9107C15.9854 21.1207 16.0756 21.3131 16.256 21.4878C16.4362 21.6626 16.6345 21.75 16.8508 21.75H20.8147C21.031 21.75 21.2292 21.6626 21.4094 21.4878C21.5896 21.3131 21.6797 21.1207 21.6797 20.9107V3.08932Z" fill="#0A5DFF"/>
<path d="M0.918832 23.1089C1.53139 23.703 2.28689 24 3.18533 24H7.14924C8.04769 24 8.80319 23.703 9.41574 23.1089C10.0283 22.515 10.3346 21.7823 10.3346 20.9107V3.08932C10.3346 2.21773 10.0283 1.485 9.41574 0.891137C8.80319 0.297046 8.04769 0 7.14924 0H3.18533C2.28689 0 1.53139 0.297046 0.918832 0.891137C0.306277 1.485 0 2.21773 0 3.08932V20.9107C0 21.7823 0.306277 22.515 0.918832 23.1089Z" fill="#373737"/>
</g>
</svg>
