<svg width="24" height="24" viewBox="0 0 24 24" fill="none" xmlns="http://www.w3.org/2000/svg"><path d="M10.9421 14.2042L9.66139 12.9235C9.38446 12.656 8.94571 12.656 8.66878 12.9235C8.38523 13.1973 8.37721 13.6497 8.65134 13.9332L10.4371 15.7189C10.7161 15.998 11.1681 15.998 11.4471 15.7189L15.3757 11.7904C15.6543 11.5117 15.6543 11.0593 15.3757 10.7807C15.0967 10.5017 14.6446 10.5017 14.3656 10.7807L10.9421 14.2042Z" fill="#0A5DFF"/><path d="M19.8707 13.4286C19.4762 13.4286 19.1599 13.7491 19.1205 14.1422C18.7633 17.752 15.7178 20.5714 12.0135 20.5714C8.06857 20.5714 4.87068 17.3735 4.87068 13.4286C4.87068 9.48326 8.06857 6.28571 12.0135 6.28571C12.1496 6.28571 12.2852 6.2892 12.4206 6.29688L10.7942 7.92355C10.5267 8.20013 10.5267 8.63888 10.7942 8.91581C11.0684 9.19971 11.5204 9.20738 11.8043 8.93325L14.6614 6.0761C14.9401 5.79743 14.9401 5.34507 14.6614 5.06641L11.8043 2.20926C11.5253 1.93025 11.0732 1.93025 10.7942 2.20926C10.5152 2.48793 10.5152 2.94029 10.7942 3.21896L12.4418 4.86761C12.3002 4.86063 12.1572 4.85714 12.0135 4.85714C7.28 4.85714 3.44211 8.69468 3.44211 13.4286C3.44211 18.1621 7.28 22 12.0135 22C16.5071 22 20.1926 18.5426 20.5557 14.1429C20.5878 13.7498 20.2648 13.4286 19.8707 13.4286Z" fill="#373737"/></svg>