<svg width="24" height="24" viewBox="0 0 24 24" fill="none" xmlns="http://www.w3.org/2000/svg"><path d="M14.8338 9.93637L10.654 14.1162L9.18789 12.6501C8.74665 12.2239 8.05605 12.2239 7.61481 12.6501C7.39729 12.8597 7.27526 13.1418 7.26996 13.4442C7.26465 13.7466 7.37695 14.0326 7.59005 14.2528L9.85372 16.5165C10.0677 16.7305 10.3516 16.8481 10.654 16.8481C10.9564 16.8481 11.2402 16.7305 11.4542 16.5165L16.4343 11.5364C16.8755 11.0952 16.8755 10.3776 16.4343 9.93637C16.0068 9.50884 15.2613 9.50884 14.8338 9.93637Z" fill="#0A5DFF"/><path d="M20.3678 13.5037C20.2064 13.3282 19.9748 13.2278 19.7329 13.2278C19.262 13.2278 18.8704 13.5972 18.8214 14.0872C18.4739 17.5982 15.5469 20.2456 12.0134 20.2456C8.24066 20.2456 5.17109 17.176 5.17109 13.4033C5.17109 9.63469 8.2338 6.56786 12.0007 6.56101L10.6893 7.87272C10.359 8.21435 10.359 8.74959 10.6893 9.09157C11.0251 9.43937 11.5816 9.44896 11.9318 9.11076L14.7389 6.30367C15.0809 5.96169 15.0809 5.40555 14.7389 5.06357L11.9318 2.25648C11.5898 1.91451 11.0334 1.91451 10.6914 2.25648C10.5255 2.42199 10.4344 2.64232 10.4344 2.8767C10.4344 3.11074 10.5255 3.33107 10.6914 3.49658L12.0003 4.80658C7.26612 4.81377 3.41666 8.66735 3.41666 13.4033C3.41666 18.1437 7.27298 22 12.0134 22C16.4529 22 20.216 18.5384 20.5806 14.1195C20.5991 13.8912 20.5237 13.6726 20.3678 13.5037Z" fill="#373737"/></svg>