<svg width="24" height="24" viewBox="0 0 24 24" fill="none" xmlns="http://www.w3.org/2000/svg">
<path d="M17.3057 12.0092C14.3397 12.0092 11.9355 14.4133 11.9355 17.3793C11.9355 20.3452 14.3397 22.7494 17.3057 22.7494C20.2716 22.7494 22.6758 20.3452 22.6758 17.3793C22.6758 14.4133 20.2716 12.0092 17.3057 12.0092ZM19.6135 17.7081L16.578 20.2577C16.2986 20.4924 15.8723 20.2936 15.8723 19.9288V14.8297C15.8723 14.465 16.2986 14.2665 16.578 14.5012L19.6135 17.0508C19.8179 17.2222 19.8179 17.5364 19.6135 17.7081Z" fill="#0A5DFF"/>
<path d="M19.5117 1.25061H2.93701C2.04785 1.25061 1.32422 1.97424 1.32422 2.8634V19.4385C1.32422 20.3276 2.04785 21.0513 2.93701 21.0513H11.5093C11.2782 20.688 11.0804 20.3024 10.92 19.8973H8.69348V14.8352H10.9296C11.0918 14.4302 11.2917 14.0449 11.5247 13.682H8.69348V8.61987H13.7552V11.5089C14.1196 11.2877 14.5049 11.1002 14.9088 10.949V8.61987H19.9709V11.0475C20.3767 11.2192 20.7627 11.4291 21.1245 11.6722V2.8634C21.1245 1.97424 20.4012 1.25061 19.5117 1.25061ZM7.53992 19.8973H2.47815V14.8352H7.53992L7.53992 19.8973ZM7.53992 13.682H2.47815V8.61987H7.53992L7.53992 13.682ZM7.53992 7.46631H2.47815V2.40454H7.53992L7.53992 7.46631ZM13.7552 7.46631H8.69348V2.40454H13.7552V7.46631ZM19.9709 7.46631H14.9088V2.40454H19.9709V7.46631Z" fill="black"/>
</svg>
