<svg preserveAspectRatio="none" width="100%" height="100%" overflow="visible" style="display: block;" viewBox="0 0 24 24" fill="none" xmlns="http://www.w3.org/2000/svg">
<g id="Group 91">
<g id="Vector">
<path d="M12.0054 24C10.3462 24 8.7861 23.6852 7.32505 23.0555C5.864 22.4258 4.59316 21.5712 3.51253 20.4916C2.43168 19.412 1.57611 18.1426 0.945789 16.6835C0.315263 15.2241 0 13.6647 0 12.0054C0 10.3407 0.315474 8.77558 0.946421 7.30989C1.57737 5.84421 2.43368 4.56916 3.51537 3.48474C4.59705 2.40053 5.86642 1.54874 7.32347 0.929368C8.78074 0.309789 10.3378 0 11.9946 0C13.6591 0 15.224 0.309369 16.6895 0.928106C18.1552 1.54684 19.4302 2.39789 20.5146 3.48126C21.5993 4.56463 22.4513 5.83853 23.0706 7.30295C23.6902 8.76737 24 10.3321 24 11.9972C24 13.6622 23.6906 15.2217 23.0719 16.6756C22.4532 18.1295 21.6022 19.3978 20.5191 20.4805C19.4361 21.5635 18.1626 22.4208 16.6986 23.0526C15.2344 23.6842 13.67 24 12.0054 24ZM12 22.2947C14.8739 22.2947 17.3082 21.2975 19.3029 19.3029C21.2975 17.3082 22.2947 14.8739 22.2947 12C22.2947 9.12611 21.2975 6.69179 19.3029 4.69705C17.3082 2.70253 14.8739 1.70526 12 1.70526C9.12611 1.70526 6.69179 2.70253 4.69705 4.69705C2.70253 6.69179 1.70526 9.12611 1.70526 12C1.70526 14.8739 2.70253 17.3082 4.69705 19.3029C6.69179 21.2975 9.12611 22.2947 12 22.2947Z" fill="#373737"/>
<path d="M7.10524 11.8421L10.1684 14.9053L16.8947 8.17899C17.0842 7.98951 17.2842 7.89478 17.4947 7.89478C17.7052 7.89478 17.9052 7.98951 18.0947 8.17899C18.2842 8.36846 18.3737 8.57372 18.3631 8.79478C18.3526 9.01583 18.2631 9.21057 18.0947 9.37899L11.1158 16.3579C10.8421 16.6316 10.5253 16.7685 10.1656 16.7685C9.80577 16.7685 9.49093 16.6316 9.22103 16.3579L5.90524 13.0421C5.71577 12.8527 5.62103 12.6527 5.62103 12.4421C5.62103 12.2316 5.71577 12.0316 5.90524 11.8421C6.09472 11.6527 6.29998 11.5632 6.52103 11.5737C6.74208 11.5842 6.93682 11.6737 7.10524 11.8421Z" fill="#0A5DFF"/>
</g>
</g>
</svg>
