<svg width="24" height="24" viewBox="0 0 24 24" fill="none" xmlns="http://www.w3.org/2000/svg">
<path d="M20.2874 2.09985H3.71265C2.82312 2.09985 2.09985 2.82312 2.09985 3.71265V20.2874C2.09985 21.1765 2.82312 21.9001 3.71265 21.9001H20.2874C21.1765 21.9001 21.9001 21.1765 21.9001 20.2874V3.71265C21.9001 2.82312 21.1765 2.09985 20.2874 2.09985ZM8.31555 20.7462H3.25342V15.6844H8.31555V20.7462ZM8.31555 14.5309H3.25342V9.46875H8.31555V14.5309ZM14.5309 20.7462H9.46875V15.6844H14.5309V20.7462ZM14.5309 14.5309H9.46875V9.46875H14.5309V14.5309ZM20.7462 20.7462H15.6844V15.6844H20.7462V20.7462ZM20.7462 14.5309H15.6844V9.46875H20.7462V14.5309Z" fill="black"/>
<path d="M20.7462 3.25342H3.25342V8.31555H20.7462V3.25342Z" fill="#0A5DFF"/>
</svg>
