<svg width="24" height="24" viewBox="0 0 24 24" fill="none" xmlns="http://www.w3.org/2000/svg"><path d="M2 5.46154C2 3.54978 3.54978 2 5.46154 2H18.5385C20.4502 2 22 3.54978 22 5.46154V18.5385C22 20.4502 20.4502 22 18.5385 22H5.46154C3.54978 22 2 20.4502 2 18.5385V5.46154ZM5.46154 3.53846C4.39945 3.53846 3.53846 4.39945 3.53846 5.46154V8.15385H8.15385V3.53846H5.46154ZM3.53846 9.69231V14.3077H8.15385V9.69231H3.53846ZM9.69231 9.69231V14.3077H14.3077V9.69231H9.69231ZM15.8462 9.69231V14.3077H20.4615V9.69231H15.8462ZM14.3077 15.8462H9.69231V20.4615H14.3077V15.8462ZM15.8462 20.4615H18.5385C19.6005 20.4615 20.4615 19.6005 20.4615 18.5385V15.8462H15.8462V20.4615ZM15.8462 8.15385H20.4615V5.46154C20.4615 4.39945 19.6005 3.53846 18.5385 3.53846H15.8462V8.15385ZM14.3077 3.53846H9.69231V8.15385H14.3077V3.53846ZM3.53846 15.8462V18.5385C3.53846 19.6005 4.39945 20.4615 5.46154 20.4615H8.15385V15.8462H3.53846Z" fill="#424242"/></svg>