<svg width="24" height="24" viewBox="0 0 24 24" fill="none" xmlns="http://www.w3.org/2000/svg"><path d="M7.19967 17.6176L7.21939 17.6365C7.41286 17.8198 7.66182 17.9118 7.91078 17.9118C8.1685 17.9118 8.42622 17.8139 8.62188 17.6176L11.075 15.1645L11.1013 15.1367C11.4678 14.7432 11.459 14.1248 11.083 13.7496L11.0735 13.7401C10.8837 13.551 10.6318 13.4466 10.3639 13.4466C10.0981 13.44 9.84259 13.5517 9.65277 13.7422L7.91078 15.4857L7.39826 14.9717C7.01861 14.5921 6.35569 14.5921 5.97605 14.9717C5.78623 15.1615 5.68182 15.4141 5.68182 15.6828C5.68182 15.9515 5.78623 16.2041 5.97605 16.3939L7.19967 17.6176Z" fill="#84aeff"/><path d="M13.6347 17.0934H17.315C17.8692 17.0934 18.3196 16.6422 18.3196 16.0888C18.3196 15.5347 17.8692 15.0842 17.315 15.0842H13.6347C13.0813 15.0842 12.6301 15.5347 12.6301 16.0888C12.6301 16.6422 13.0813 17.0934 13.6347 17.0934Z" fill="#84aeff"/><path d="M7.19967 11.0754C7.3895 11.2659 7.65963 11.355 7.91078 11.3703C8.16485 11.3703 8.40432 11.2769 8.59049 11.1053L11.075 8.62229C11.4678 8.23023 11.467 7.59213 11.075 7.20008C10.6953 6.8197 10.0324 6.8197 9.65277 7.20008L7.91078 8.94353L7.39826 8.43027C7.01861 8.0499 6.35569 8.0499 5.97605 8.42954C5.78623 8.61937 5.68182 8.87198 5.68182 9.14065C5.68182 9.40932 5.78623 9.66193 5.97605 9.85248L7.19967 11.0754Z" fill="#84aeff"/><path d="M13.6347 10.5512H17.315C17.8692 10.5512 18.3196 10.1007 18.3196 9.54659C18.3196 8.99246 17.8692 8.54199 17.315 8.54199H13.6347C13.0813 8.54199 12.6301 8.99246 12.6301 9.54659C12.6301 10.1007 13.0813 10.5512 13.6347 10.5512Z" fill="#84aeff"/><path d="M17.7239 2.00037H6.27539C3.91794 2.00037 2 3.9183 2 6.27575V17.7242C2 20.0817 3.91794 21.9996 6.27539 21.9996H17.7239C20.0813 21.9996 22 20.0817 22 17.7242V6.27575C22 3.9183 20.0813 2.00037 17.7239 2.00037ZM4.0092 6.27575C4.0092 5.02585 5.02548 4.00957 6.27539 4.00957H17.7239C18.9738 4.00957 19.9908 5.02585 19.9908 6.27575V17.7242C19.9908 18.9742 18.9738 19.9904 17.7239 19.9904H6.27539C5.02548 19.9904 4.0092 18.9742 4.0092 17.7242V6.27575Z" fill="#d4d4d4"/></svg>