<svg preserveAspectRatio="none" width="100%" height="100%" overflow="visible" style="display: block;" viewBox="0 0 24 24" fill="none" xmlns="http://www.w3.org/2000/svg">
<g id="Vector">
<path d="M3.84228 20.7909H20.1578C20.8831 20.7909 21.4988 20.5574 22.0049 20.0905C22.5111 19.6235 22.7642 19.0394 22.7642 18.338V2.50384C22.7642 1.80719 22.5111 1.21576 22.0049 0.729431C21.4988 0.243164 20.8831 0 20.1578 0H3.84228C3.11706 0 2.50134 0.243164 1.99512 0.729431C1.48889 1.21576 1.23584 1.80719 1.23584 2.50384V18.338C1.23584 19.0394 1.48889 19.6235 1.99512 20.0905C2.50134 20.5574 3.11706 20.7909 3.84228 20.7909ZM3.51587 2.50384C3.51587 2.42541 3.54993 2.35364 3.61792 2.28839C3.68579 2.22302 3.76062 2.19037 3.84228 2.19037H20.1578C20.2395 2.19037 20.3142 2.22302 20.3821 2.28839C20.4502 2.35364 20.4841 2.42541 20.4841 2.50384V18.287C20.4841 18.3655 20.4502 18.4374 20.3821 18.5027C20.3142 18.5679 20.2395 18.6005 20.1578 18.6005H3.84228C3.76062 18.6005 3.68579 18.5679 3.61792 18.5027C3.54993 18.4374 3.51587 18.3655 3.51587 18.287V2.50384Z" fill="#373737"/>
<path d="M23.6658 22.1311C23.4426 21.9168 23.1741 21.8097 22.8599 21.8097H1.14014C0.825928 21.8097 0.557373 21.9168 0.334351 22.1311C0.111451 22.3452 0 22.6031 0 22.9048C0 23.2065 0.11145 23.4645 0.334351 23.6786C0.557373 23.8929 0.825928 24 1.14014 24H22.8599C23.1741 24 23.4426 23.8929 23.6658 23.6786C23.8887 23.4645 24 23.2065 24 22.9048C24 22.6031 23.8887 22.3452 23.6658 22.1311Z" fill="#373737"/>
<path d="M8.84107 15.1078C8.94421 15.3063 9.09021 15.4561 9.27905 15.5573C9.46753 15.6585 9.6709 15.7091 9.88904 15.7091C10.0986 15.7091 10.2983 15.6552 10.488 15.5474C10.6775 15.4397 10.824 15.2867 10.9272 15.0882L14.0415 9.85327L14.6331 10.9443C14.7322 11.1625 14.8901 11.3321 15.1069 11.453C15.3237 11.5737 15.5505 11.634 15.7874 11.634H19.291V9.44372H16.4237L15.1589 6.98895C15.063 6.79694 14.9202 6.65619 14.7312 6.56671C14.542 6.47723 14.3386 6.4325 14.1211 6.4325C13.9034 6.4325 13.6985 6.47723 13.5062 6.56671C13.3137 6.65619 13.1659 6.80347 13.0626 7.00861L9.93201 12.3141L8.7959 10.0453C8.69263 9.8468 8.54627 9.69684 8.35669 9.59552C8.16712 9.49432 7.96753 9.44373 7.75794 9.44373H4.77441V11.634H7.04614L8.84107 15.1078Z" fill="#0A5DFF"/>
</g>
</svg>
